<mxfile host="app.diagrams.net" agent="Mozilla/5.0 (Macintosh; Intel Mac OS X 10_15_7) AppleWebKit/537.36 (KHTML, like Gecko) Chrome/131.0.0.0 Safari/537.36" version="26.0.6">
  <diagram name="Page-1" id="b520641d-4fe3-3701-9064-5fc419738815">
    <mxGraphModel dx="9470" dy="4225" grid="1" gridSize="10" guides="1" tooltips="1" connect="1" arrows="1" fold="1" page="1" pageScale="1" pageWidth="1100" pageHeight="850" background="none" math="0" shadow="0">
      <root>
        <mxCell id="0" />
        <mxCell id="1" parent="0" />
        <mxCell id="sEEItQU2I7kSX01EIMOG-8" value="" style="rounded=0;whiteSpace=wrap;html=1;strokeColor=none;shadow=1;" vertex="1" parent="1">
          <mxGeometry x="-1039" y="80" width="500" height="600" as="geometry" />
        </mxCell>
        <mxCell id="sEEItQU2I7kSX01EIMOG-1" value="" style="rounded=0;whiteSpace=wrap;html=1;fillColor=#808080;shadow=0;strokeColor=none;" vertex="1" parent="1">
          <mxGeometry x="-1039" y="80" width="500" height="40" as="geometry" />
        </mxCell>
        <mxCell id="sEEItQU2I7kSX01EIMOG-11" value="" style="ellipse;whiteSpace=wrap;html=1;aspect=fixed;strokeColor=none;fillColor=#C4C4C4;" vertex="1" parent="1">
          <mxGeometry x="-1029" y="85" width="30" height="30" as="geometry" />
        </mxCell>
        <mxCell id="sEEItQU2I7kSX01EIMOG-12" value="" style="ellipse;whiteSpace=wrap;html=1;aspect=fixed;strokeColor=none;fillColor=#C4C4C4;" vertex="1" parent="1">
          <mxGeometry x="-989" y="85" width="30" height="30" as="geometry" />
        </mxCell>
        <mxCell id="sEEItQU2I7kSX01EIMOG-13" value="" style="ellipse;whiteSpace=wrap;html=1;aspect=fixed;strokeColor=none;fillColor=#C4C4C4;" vertex="1" parent="1">
          <mxGeometry x="-949" y="85" width="30" height="30" as="geometry" />
        </mxCell>
        <mxCell id="sEEItQU2I7kSX01EIMOG-19" value="&lt;font style=&quot;font-size: 24px;&quot;&gt;( /404 )&lt;/font&gt;" style="text;html=1;align=center;verticalAlign=middle;whiteSpace=wrap;rounded=0;" vertex="1" parent="1">
          <mxGeometry x="-1039" y="123" width="500" height="30" as="geometry" />
        </mxCell>
        <mxCell id="sEEItQU2I7kSX01EIMOG-21" value="&lt;font style=&quot;font-size: 36px;&quot;&gt;404 페이지&lt;/font&gt;" style="text;html=1;align=center;verticalAlign=middle;whiteSpace=wrap;rounded=0;" vertex="1" parent="1">
          <mxGeometry x="-1039" y="157" width="500" height="30" as="geometry" />
        </mxCell>
        <mxCell id="sEEItQU2I7kSX01EIMOG-26" value="" style="rounded=0;whiteSpace=wrap;html=1;strokeColor=none;shadow=1;" vertex="1" parent="1">
          <mxGeometry x="-1039" y="720" width="500" height="600" as="geometry" />
        </mxCell>
        <mxCell id="sEEItQU2I7kSX01EIMOG-27" value="" style="rounded=0;whiteSpace=wrap;html=1;fillColor=#808080;shadow=0;strokeColor=none;" vertex="1" parent="1">
          <mxGeometry x="-1039" y="720" width="500" height="40" as="geometry" />
        </mxCell>
        <mxCell id="sEEItQU2I7kSX01EIMOG-28" value="" style="ellipse;whiteSpace=wrap;html=1;aspect=fixed;strokeColor=none;fillColor=#C4C4C4;" vertex="1" parent="1">
          <mxGeometry x="-1029" y="725" width="30" height="30" as="geometry" />
        </mxCell>
        <mxCell id="sEEItQU2I7kSX01EIMOG-29" value="" style="ellipse;whiteSpace=wrap;html=1;aspect=fixed;strokeColor=none;fillColor=#C4C4C4;" vertex="1" parent="1">
          <mxGeometry x="-989" y="725" width="30" height="30" as="geometry" />
        </mxCell>
        <mxCell id="sEEItQU2I7kSX01EIMOG-30" value="" style="ellipse;whiteSpace=wrap;html=1;aspect=fixed;strokeColor=none;fillColor=#C4C4C4;" vertex="1" parent="1">
          <mxGeometry x="-949" y="725" width="30" height="30" as="geometry" />
        </mxCell>
        <mxCell id="sEEItQU2I7kSX01EIMOG-31" value="&lt;font style=&quot;font-size: 24px;&quot;&gt;( / )&lt;/font&gt;" style="text;html=1;align=center;verticalAlign=middle;whiteSpace=wrap;rounded=0;" vertex="1" parent="1">
          <mxGeometry x="-1039" y="763" width="500" height="30" as="geometry" />
        </mxCell>
        <mxCell id="sEEItQU2I7kSX01EIMOG-32" value="&lt;font style=&quot;font-size: 36px;&quot;&gt;메인 페이지&lt;/font&gt;" style="text;html=1;align=center;verticalAlign=middle;whiteSpace=wrap;rounded=0;" vertex="1" parent="1">
          <mxGeometry x="-1039" y="797" width="500" height="30" as="geometry" />
        </mxCell>
        <mxCell id="sEEItQU2I7kSX01EIMOG-33" value="" style="rounded=0;whiteSpace=wrap;html=1;strokeColor=none;shadow=1;" vertex="1" parent="1">
          <mxGeometry x="-489" y="720" width="500" height="600" as="geometry" />
        </mxCell>
        <mxCell id="sEEItQU2I7kSX01EIMOG-34" value="" style="rounded=0;whiteSpace=wrap;html=1;fillColor=#808080;shadow=0;strokeColor=none;" vertex="1" parent="1">
          <mxGeometry x="-489" y="720" width="500" height="40" as="geometry" />
        </mxCell>
        <mxCell id="sEEItQU2I7kSX01EIMOG-35" value="" style="ellipse;whiteSpace=wrap;html=1;aspect=fixed;strokeColor=none;fillColor=#C4C4C4;" vertex="1" parent="1">
          <mxGeometry x="-479" y="725" width="30" height="30" as="geometry" />
        </mxCell>
        <mxCell id="sEEItQU2I7kSX01EIMOG-36" value="" style="ellipse;whiteSpace=wrap;html=1;aspect=fixed;strokeColor=none;fillColor=#C4C4C4;" vertex="1" parent="1">
          <mxGeometry x="-439" y="725" width="30" height="30" as="geometry" />
        </mxCell>
        <mxCell id="sEEItQU2I7kSX01EIMOG-37" value="" style="ellipse;whiteSpace=wrap;html=1;aspect=fixed;strokeColor=none;fillColor=#C4C4C4;" vertex="1" parent="1">
          <mxGeometry x="-399" y="725" width="30" height="30" as="geometry" />
        </mxCell>
        <mxCell id="sEEItQU2I7kSX01EIMOG-38" value="&lt;font style=&quot;font-size: 24px;&quot;&gt;( /login )&lt;/font&gt;" style="text;html=1;align=center;verticalAlign=middle;whiteSpace=wrap;rounded=0;" vertex="1" parent="1">
          <mxGeometry x="-489" y="763" width="500" height="30" as="geometry" />
        </mxCell>
        <mxCell id="sEEItQU2I7kSX01EIMOG-39" value="&lt;span style=&quot;font-size: 36px;&quot;&gt;로그인 페이지&lt;/span&gt;" style="text;html=1;align=center;verticalAlign=middle;whiteSpace=wrap;rounded=0;" vertex="1" parent="1">
          <mxGeometry x="-489" y="797" width="500" height="30" as="geometry" />
        </mxCell>
        <mxCell id="sEEItQU2I7kSX01EIMOG-40" value="" style="rounded=0;whiteSpace=wrap;html=1;strokeColor=none;shadow=1;" vertex="1" parent="1">
          <mxGeometry x="61" y="720" width="500" height="600" as="geometry" />
        </mxCell>
        <mxCell id="sEEItQU2I7kSX01EIMOG-41" value="" style="rounded=0;whiteSpace=wrap;html=1;fillColor=#808080;shadow=0;strokeColor=none;" vertex="1" parent="1">
          <mxGeometry x="61" y="720" width="500" height="40" as="geometry" />
        </mxCell>
        <mxCell id="sEEItQU2I7kSX01EIMOG-42" value="" style="ellipse;whiteSpace=wrap;html=1;aspect=fixed;strokeColor=none;fillColor=#C4C4C4;" vertex="1" parent="1">
          <mxGeometry x="71" y="725" width="30" height="30" as="geometry" />
        </mxCell>
        <mxCell id="sEEItQU2I7kSX01EIMOG-43" value="" style="ellipse;whiteSpace=wrap;html=1;aspect=fixed;strokeColor=none;fillColor=#C4C4C4;" vertex="1" parent="1">
          <mxGeometry x="111" y="725" width="30" height="30" as="geometry" />
        </mxCell>
        <mxCell id="sEEItQU2I7kSX01EIMOG-44" value="" style="ellipse;whiteSpace=wrap;html=1;aspect=fixed;strokeColor=none;fillColor=#C4C4C4;" vertex="1" parent="1">
          <mxGeometry x="151" y="725" width="30" height="30" as="geometry" />
        </mxCell>
        <mxCell id="sEEItQU2I7kSX01EIMOG-45" value="&lt;font style=&quot;font-size: 24px;&quot;&gt;( /login_{sns} )&lt;/font&gt;" style="text;html=1;align=center;verticalAlign=middle;whiteSpace=wrap;rounded=0;" vertex="1" parent="1">
          <mxGeometry x="61" y="763" width="500" height="30" as="geometry" />
        </mxCell>
        <mxCell id="sEEItQU2I7kSX01EIMOG-46" value="&lt;span style=&quot;font-size: 36px;&quot;&gt;SNS 로그인 페이지&lt;/span&gt;" style="text;html=1;align=center;verticalAlign=middle;whiteSpace=wrap;rounded=0;" vertex="1" parent="1">
          <mxGeometry x="61" y="797" width="500" height="30" as="geometry" />
        </mxCell>
        <mxCell id="sEEItQU2I7kSX01EIMOG-47" value="" style="rounded=0;whiteSpace=wrap;html=1;strokeColor=none;shadow=1;" vertex="1" parent="1">
          <mxGeometry x="611" y="720" width="500" height="600" as="geometry" />
        </mxCell>
        <mxCell id="sEEItQU2I7kSX01EIMOG-48" value="" style="rounded=0;whiteSpace=wrap;html=1;fillColor=#808080;shadow=0;strokeColor=none;" vertex="1" parent="1">
          <mxGeometry x="611" y="720" width="500" height="40" as="geometry" />
        </mxCell>
        <mxCell id="sEEItQU2I7kSX01EIMOG-49" value="" style="ellipse;whiteSpace=wrap;html=1;aspect=fixed;strokeColor=none;fillColor=#C4C4C4;" vertex="1" parent="1">
          <mxGeometry x="621" y="725" width="30" height="30" as="geometry" />
        </mxCell>
        <mxCell id="sEEItQU2I7kSX01EIMOG-50" value="" style="ellipse;whiteSpace=wrap;html=1;aspect=fixed;strokeColor=none;fillColor=#C4C4C4;" vertex="1" parent="1">
          <mxGeometry x="661" y="725" width="30" height="30" as="geometry" />
        </mxCell>
        <mxCell id="sEEItQU2I7kSX01EIMOG-51" value="" style="ellipse;whiteSpace=wrap;html=1;aspect=fixed;strokeColor=none;fillColor=#C4C4C4;" vertex="1" parent="1">
          <mxGeometry x="701" y="725" width="30" height="30" as="geometry" />
        </mxCell>
        <mxCell id="sEEItQU2I7kSX01EIMOG-52" value="&lt;font style=&quot;font-size: 24px;&quot;&gt;( /register )&lt;/font&gt;" style="text;html=1;align=center;verticalAlign=middle;whiteSpace=wrap;rounded=0;" vertex="1" parent="1">
          <mxGeometry x="611" y="763" width="500" height="30" as="geometry" />
        </mxCell>
        <mxCell id="sEEItQU2I7kSX01EIMOG-53" value="&lt;span style=&quot;font-size: 36px;&quot;&gt;회원가입 페이지&lt;/span&gt;" style="text;html=1;align=center;verticalAlign=middle;whiteSpace=wrap;rounded=0;" vertex="1" parent="1">
          <mxGeometry x="611" y="797" width="500" height="30" as="geometry" />
        </mxCell>
        <mxCell id="sEEItQU2I7kSX01EIMOG-54" value="" style="rounded=0;whiteSpace=wrap;html=1;strokeColor=none;shadow=1;" vertex="1" parent="1">
          <mxGeometry x="1161" y="720" width="500" height="600" as="geometry" />
        </mxCell>
        <mxCell id="sEEItQU2I7kSX01EIMOG-55" value="" style="rounded=0;whiteSpace=wrap;html=1;fillColor=#808080;shadow=0;strokeColor=none;" vertex="1" parent="1">
          <mxGeometry x="1161" y="720" width="500" height="40" as="geometry" />
        </mxCell>
        <mxCell id="sEEItQU2I7kSX01EIMOG-56" value="" style="ellipse;whiteSpace=wrap;html=1;aspect=fixed;strokeColor=none;fillColor=#C4C4C4;" vertex="1" parent="1">
          <mxGeometry x="1171" y="725" width="30" height="30" as="geometry" />
        </mxCell>
        <mxCell id="sEEItQU2I7kSX01EIMOG-57" value="" style="ellipse;whiteSpace=wrap;html=1;aspect=fixed;strokeColor=none;fillColor=#C4C4C4;" vertex="1" parent="1">
          <mxGeometry x="1211" y="725" width="30" height="30" as="geometry" />
        </mxCell>
        <mxCell id="sEEItQU2I7kSX01EIMOG-58" value="" style="ellipse;whiteSpace=wrap;html=1;aspect=fixed;strokeColor=none;fillColor=#C4C4C4;" vertex="1" parent="1">
          <mxGeometry x="1251" y="725" width="30" height="30" as="geometry" />
        </mxCell>
        <mxCell id="sEEItQU2I7kSX01EIMOG-59" value="&lt;font style=&quot;font-size: 24px;&quot;&gt;( /forgot_cert )&lt;/font&gt;" style="text;html=1;align=center;verticalAlign=middle;whiteSpace=wrap;rounded=0;" vertex="1" parent="1">
          <mxGeometry x="1161" y="763" width="500" height="30" as="geometry" />
        </mxCell>
        <mxCell id="sEEItQU2I7kSX01EIMOG-60" value="&lt;span style=&quot;font-size: 36px;&quot;&gt;계정 찾기 인증 페이지&lt;/span&gt;" style="text;html=1;align=center;verticalAlign=middle;whiteSpace=wrap;rounded=0;" vertex="1" parent="1">
          <mxGeometry x="1161" y="797" width="500" height="30" as="geometry" />
        </mxCell>
        <mxCell id="sEEItQU2I7kSX01EIMOG-61" value="" style="rounded=0;whiteSpace=wrap;html=1;strokeColor=none;shadow=1;" vertex="1" parent="1">
          <mxGeometry x="1711" y="720" width="500" height="600" as="geometry" />
        </mxCell>
        <mxCell id="sEEItQU2I7kSX01EIMOG-62" value="" style="rounded=0;whiteSpace=wrap;html=1;fillColor=#808080;shadow=0;strokeColor=none;" vertex="1" parent="1">
          <mxGeometry x="1711" y="720" width="500" height="40" as="geometry" />
        </mxCell>
        <mxCell id="sEEItQU2I7kSX01EIMOG-63" value="" style="ellipse;whiteSpace=wrap;html=1;aspect=fixed;strokeColor=none;fillColor=#C4C4C4;" vertex="1" parent="1">
          <mxGeometry x="1721" y="725" width="30" height="30" as="geometry" />
        </mxCell>
        <mxCell id="sEEItQU2I7kSX01EIMOG-64" value="" style="ellipse;whiteSpace=wrap;html=1;aspect=fixed;strokeColor=none;fillColor=#C4C4C4;" vertex="1" parent="1">
          <mxGeometry x="1761" y="725" width="30" height="30" as="geometry" />
        </mxCell>
        <mxCell id="sEEItQU2I7kSX01EIMOG-65" value="" style="ellipse;whiteSpace=wrap;html=1;aspect=fixed;strokeColor=none;fillColor=#C4C4C4;" vertex="1" parent="1">
          <mxGeometry x="1801" y="725" width="30" height="30" as="geometry" />
        </mxCell>
        <mxCell id="sEEItQU2I7kSX01EIMOG-66" value="&lt;font style=&quot;font-size: 24px;&quot;&gt;( /forgot_reset )&lt;/font&gt;" style="text;html=1;align=center;verticalAlign=middle;whiteSpace=wrap;rounded=0;" vertex="1" parent="1">
          <mxGeometry x="1711" y="763" width="500" height="30" as="geometry" />
        </mxCell>
        <mxCell id="sEEItQU2I7kSX01EIMOG-67" value="&lt;span style=&quot;font-size: 36px;&quot;&gt;계정 찾기 복구 페이지&lt;/span&gt;" style="text;html=1;align=center;verticalAlign=middle;whiteSpace=wrap;rounded=0;" vertex="1" parent="1">
          <mxGeometry x="1711" y="797" width="500" height="30" as="geometry" />
        </mxCell>
        <mxCell id="sEEItQU2I7kSX01EIMOG-68" value="" style="rounded=0;whiteSpace=wrap;html=1;strokeColor=none;shadow=1;" vertex="1" parent="1">
          <mxGeometry x="2261" y="720" width="500" height="600" as="geometry" />
        </mxCell>
        <mxCell id="sEEItQU2I7kSX01EIMOG-69" value="" style="rounded=0;whiteSpace=wrap;html=1;fillColor=#808080;shadow=0;strokeColor=none;" vertex="1" parent="1">
          <mxGeometry x="2261" y="720" width="500" height="40" as="geometry" />
        </mxCell>
        <mxCell id="sEEItQU2I7kSX01EIMOG-70" value="" style="ellipse;whiteSpace=wrap;html=1;aspect=fixed;strokeColor=none;fillColor=#C4C4C4;" vertex="1" parent="1">
          <mxGeometry x="2271" y="725" width="30" height="30" as="geometry" />
        </mxCell>
        <mxCell id="sEEItQU2I7kSX01EIMOG-71" value="" style="ellipse;whiteSpace=wrap;html=1;aspect=fixed;strokeColor=none;fillColor=#C4C4C4;" vertex="1" parent="1">
          <mxGeometry x="2311" y="725" width="30" height="30" as="geometry" />
        </mxCell>
        <mxCell id="sEEItQU2I7kSX01EIMOG-72" value="" style="ellipse;whiteSpace=wrap;html=1;aspect=fixed;strokeColor=none;fillColor=#C4C4C4;" vertex="1" parent="1">
          <mxGeometry x="2351" y="725" width="30" height="30" as="geometry" />
        </mxCell>
        <mxCell id="sEEItQU2I7kSX01EIMOG-73" value="&lt;font style=&quot;font-size: 24px;&quot;&gt;( /profile )&lt;/font&gt;" style="text;html=1;align=center;verticalAlign=middle;whiteSpace=wrap;rounded=0;" vertex="1" parent="1">
          <mxGeometry x="2261" y="763" width="500" height="30" as="geometry" />
        </mxCell>
        <mxCell id="sEEItQU2I7kSX01EIMOG-74" value="&lt;span style=&quot;font-size: 36px;&quot;&gt;프로필 관리 페이지&lt;/span&gt;" style="text;html=1;align=center;verticalAlign=middle;whiteSpace=wrap;rounded=0;" vertex="1" parent="1">
          <mxGeometry x="2261" y="797" width="500" height="30" as="geometry" />
        </mxCell>
        <mxCell id="sEEItQU2I7kSX01EIMOG-75" value="" style="rounded=0;whiteSpace=wrap;html=1;strokeColor=none;shadow=1;" vertex="1" parent="1">
          <mxGeometry x="2811" y="720" width="500" height="600" as="geometry" />
        </mxCell>
        <mxCell id="sEEItQU2I7kSX01EIMOG-76" value="" style="rounded=0;whiteSpace=wrap;html=1;fillColor=#808080;shadow=0;strokeColor=none;" vertex="1" parent="1">
          <mxGeometry x="2811" y="720" width="500" height="40" as="geometry" />
        </mxCell>
        <mxCell id="sEEItQU2I7kSX01EIMOG-77" value="" style="ellipse;whiteSpace=wrap;html=1;aspect=fixed;strokeColor=none;fillColor=#C4C4C4;" vertex="1" parent="1">
          <mxGeometry x="2821" y="725" width="30" height="30" as="geometry" />
        </mxCell>
        <mxCell id="sEEItQU2I7kSX01EIMOG-78" value="" style="ellipse;whiteSpace=wrap;html=1;aspect=fixed;strokeColor=none;fillColor=#C4C4C4;" vertex="1" parent="1">
          <mxGeometry x="2861" y="725" width="30" height="30" as="geometry" />
        </mxCell>
        <mxCell id="sEEItQU2I7kSX01EIMOG-79" value="" style="ellipse;whiteSpace=wrap;html=1;aspect=fixed;strokeColor=none;fillColor=#C4C4C4;" vertex="1" parent="1">
          <mxGeometry x="2901" y="725" width="30" height="30" as="geometry" />
        </mxCell>
        <mxCell id="sEEItQU2I7kSX01EIMOG-80" value="&lt;font style=&quot;font-size: 24px;&quot;&gt;( /bookmark )&lt;/font&gt;" style="text;html=1;align=center;verticalAlign=middle;whiteSpace=wrap;rounded=0;" vertex="1" parent="1">
          <mxGeometry x="2811" y="763" width="500" height="30" as="geometry" />
        </mxCell>
        <mxCell id="sEEItQU2I7kSX01EIMOG-81" value="&lt;span style=&quot;font-size: 36px;&quot;&gt;북마크 페이지&lt;/span&gt;" style="text;html=1;align=center;verticalAlign=middle;whiteSpace=wrap;rounded=0;" vertex="1" parent="1">
          <mxGeometry x="2811" y="797" width="500" height="30" as="geometry" />
        </mxCell>
        <mxCell id="sEEItQU2I7kSX01EIMOG-82" value="" style="rounded=0;whiteSpace=wrap;html=1;strokeColor=none;shadow=1;" vertex="1" parent="1">
          <mxGeometry x="5021" y="720" width="500" height="600" as="geometry" />
        </mxCell>
        <mxCell id="sEEItQU2I7kSX01EIMOG-83" value="" style="rounded=0;whiteSpace=wrap;html=1;fillColor=#808080;shadow=0;strokeColor=none;" vertex="1" parent="1">
          <mxGeometry x="5021" y="720" width="500" height="40" as="geometry" />
        </mxCell>
        <mxCell id="sEEItQU2I7kSX01EIMOG-84" value="" style="ellipse;whiteSpace=wrap;html=1;aspect=fixed;strokeColor=none;fillColor=#C4C4C4;" vertex="1" parent="1">
          <mxGeometry x="5031" y="725" width="30" height="30" as="geometry" />
        </mxCell>
        <mxCell id="sEEItQU2I7kSX01EIMOG-85" value="" style="ellipse;whiteSpace=wrap;html=1;aspect=fixed;strokeColor=none;fillColor=#C4C4C4;" vertex="1" parent="1">
          <mxGeometry x="5071" y="725" width="30" height="30" as="geometry" />
        </mxCell>
        <mxCell id="sEEItQU2I7kSX01EIMOG-86" value="" style="ellipse;whiteSpace=wrap;html=1;aspect=fixed;strokeColor=none;fillColor=#C4C4C4;" vertex="1" parent="1">
          <mxGeometry x="5111" y="725" width="30" height="30" as="geometry" />
        </mxCell>
        <mxCell id="sEEItQU2I7kSX01EIMOG-87" value="&lt;font style=&quot;font-size: 24px;&quot;&gt;( /contact&lt;/font&gt;&lt;span style=&quot;font-size: 24px; background-color: transparent; color: light-dark(rgb(0, 0, 0), rgb(255, 255, 255));&quot;&gt;&amp;nbsp;)&lt;/span&gt;" style="text;html=1;align=center;verticalAlign=middle;whiteSpace=wrap;rounded=0;" vertex="1" parent="1">
          <mxGeometry x="5021" y="763" width="500" height="30" as="geometry" />
        </mxCell>
        <mxCell id="sEEItQU2I7kSX01EIMOG-88" value="&lt;span style=&quot;font-size: 36px;&quot;&gt;서비스 관리자 페이지&lt;/span&gt;" style="text;html=1;align=center;verticalAlign=middle;whiteSpace=wrap;rounded=0;" vertex="1" parent="1">
          <mxGeometry x="5021" y="797" width="500" height="30" as="geometry" />
        </mxCell>
        <mxCell id="sEEItQU2I7kSX01EIMOG-89" value="" style="rounded=0;whiteSpace=wrap;html=1;strokeColor=none;shadow=1;" vertex="1" parent="1">
          <mxGeometry x="5581" y="720" width="500" height="600" as="geometry" />
        </mxCell>
        <mxCell id="sEEItQU2I7kSX01EIMOG-90" value="" style="rounded=0;whiteSpace=wrap;html=1;fillColor=#808080;shadow=0;strokeColor=none;" vertex="1" parent="1">
          <mxGeometry x="5581" y="720" width="500" height="40" as="geometry" />
        </mxCell>
        <mxCell id="sEEItQU2I7kSX01EIMOG-91" value="" style="ellipse;whiteSpace=wrap;html=1;aspect=fixed;strokeColor=none;fillColor=#C4C4C4;" vertex="1" parent="1">
          <mxGeometry x="5591" y="725" width="30" height="30" as="geometry" />
        </mxCell>
        <mxCell id="sEEItQU2I7kSX01EIMOG-92" value="" style="ellipse;whiteSpace=wrap;html=1;aspect=fixed;strokeColor=none;fillColor=#C4C4C4;" vertex="1" parent="1">
          <mxGeometry x="5631" y="725" width="30" height="30" as="geometry" />
        </mxCell>
        <mxCell id="sEEItQU2I7kSX01EIMOG-93" value="" style="ellipse;whiteSpace=wrap;html=1;aspect=fixed;strokeColor=none;fillColor=#C4C4C4;" vertex="1" parent="1">
          <mxGeometry x="5671" y="725" width="30" height="30" as="geometry" />
        </mxCell>
        <mxCell id="sEEItQU2I7kSX01EIMOG-94" value="&lt;font style=&quot;font-size: 24px;&quot;&gt;( /terms&lt;/font&gt;&lt;span style=&quot;font-size: 24px; background-color: transparent; color: light-dark(rgb(0, 0, 0), rgb(255, 255, 255));&quot;&gt;&amp;nbsp;)&lt;/span&gt;" style="text;html=1;align=center;verticalAlign=middle;whiteSpace=wrap;rounded=0;" vertex="1" parent="1">
          <mxGeometry x="5581" y="763" width="500" height="30" as="geometry" />
        </mxCell>
        <mxCell id="sEEItQU2I7kSX01EIMOG-95" value="&lt;span style=&quot;font-size: 36px;&quot;&gt;이용약관 페이지&lt;/span&gt;" style="text;html=1;align=center;verticalAlign=middle;whiteSpace=wrap;rounded=0;" vertex="1" parent="1">
          <mxGeometry x="5581" y="797" width="500" height="30" as="geometry" />
        </mxCell>
        <mxCell id="sEEItQU2I7kSX01EIMOG-96" value="" style="rounded=0;whiteSpace=wrap;html=1;strokeColor=none;shadow=1;" vertex="1" parent="1">
          <mxGeometry x="3361" y="720" width="500" height="600" as="geometry" />
        </mxCell>
        <mxCell id="sEEItQU2I7kSX01EIMOG-97" value="" style="rounded=0;whiteSpace=wrap;html=1;fillColor=#808080;shadow=0;strokeColor=none;" vertex="1" parent="1">
          <mxGeometry x="3361" y="720" width="500" height="40" as="geometry" />
        </mxCell>
        <mxCell id="sEEItQU2I7kSX01EIMOG-98" value="" style="ellipse;whiteSpace=wrap;html=1;aspect=fixed;strokeColor=none;fillColor=#C4C4C4;" vertex="1" parent="1">
          <mxGeometry x="3371" y="725" width="30" height="30" as="geometry" />
        </mxCell>
        <mxCell id="sEEItQU2I7kSX01EIMOG-99" value="" style="ellipse;whiteSpace=wrap;html=1;aspect=fixed;strokeColor=none;fillColor=#C4C4C4;" vertex="1" parent="1">
          <mxGeometry x="3411" y="725" width="30" height="30" as="geometry" />
        </mxCell>
        <mxCell id="sEEItQU2I7kSX01EIMOG-100" value="" style="ellipse;whiteSpace=wrap;html=1;aspect=fixed;strokeColor=none;fillColor=#C4C4C4;" vertex="1" parent="1">
          <mxGeometry x="3451" y="725" width="30" height="30" as="geometry" />
        </mxCell>
        <mxCell id="sEEItQU2I7kSX01EIMOG-101" value="&lt;font style=&quot;font-size: 24px;&quot;&gt;( /point_shop&lt;/font&gt;&lt;span style=&quot;font-size: 24px; background-color: transparent; color: light-dark(rgb(0, 0, 0), rgb(255, 255, 255));&quot;&gt;&amp;nbsp;)&lt;/span&gt;" style="text;html=1;align=center;verticalAlign=middle;whiteSpace=wrap;rounded=0;" vertex="1" parent="1">
          <mxGeometry x="3361" y="763" width="500" height="30" as="geometry" />
        </mxCell>
        <mxCell id="sEEItQU2I7kSX01EIMOG-102" value="&lt;span style=&quot;font-size: 36px;&quot;&gt;포인트 상점 페이지&lt;/span&gt;" style="text;html=1;align=center;verticalAlign=middle;whiteSpace=wrap;rounded=0;" vertex="1" parent="1">
          <mxGeometry x="3361" y="797" width="500" height="30" as="geometry" />
        </mxCell>
        <mxCell id="sEEItQU2I7kSX01EIMOG-103" value="" style="rounded=0;whiteSpace=wrap;html=1;strokeColor=none;shadow=1;" vertex="1" parent="1">
          <mxGeometry x="3921" y="720" width="500" height="600" as="geometry" />
        </mxCell>
        <mxCell id="sEEItQU2I7kSX01EIMOG-104" value="" style="rounded=0;whiteSpace=wrap;html=1;fillColor=#808080;shadow=0;strokeColor=none;" vertex="1" parent="1">
          <mxGeometry x="3921" y="720" width="500" height="40" as="geometry" />
        </mxCell>
        <mxCell id="sEEItQU2I7kSX01EIMOG-105" value="" style="ellipse;whiteSpace=wrap;html=1;aspect=fixed;strokeColor=none;fillColor=#C4C4C4;" vertex="1" parent="1">
          <mxGeometry x="3931" y="725" width="30" height="30" as="geometry" />
        </mxCell>
        <mxCell id="sEEItQU2I7kSX01EIMOG-106" value="" style="ellipse;whiteSpace=wrap;html=1;aspect=fixed;strokeColor=none;fillColor=#C4C4C4;" vertex="1" parent="1">
          <mxGeometry x="3971" y="725" width="30" height="30" as="geometry" />
        </mxCell>
        <mxCell id="sEEItQU2I7kSX01EIMOG-107" value="" style="ellipse;whiteSpace=wrap;html=1;aspect=fixed;strokeColor=none;fillColor=#C4C4C4;" vertex="1" parent="1">
          <mxGeometry x="4011" y="725" width="30" height="30" as="geometry" />
        </mxCell>
        <mxCell id="sEEItQU2I7kSX01EIMOG-108" value="&lt;font style=&quot;font-size: 24px;&quot;&gt;( /point_purchase&lt;/font&gt;&lt;span style=&quot;font-size: 24px; background-color: transparent; color: light-dark(rgb(0, 0, 0), rgb(255, 255, 255));&quot;&gt;&amp;nbsp;)&lt;/span&gt;" style="text;html=1;align=center;verticalAlign=middle;whiteSpace=wrap;rounded=0;" vertex="1" parent="1">
          <mxGeometry x="3921" y="763" width="500" height="30" as="geometry" />
        </mxCell>
        <mxCell id="sEEItQU2I7kSX01EIMOG-109" value="&lt;span style=&quot;font-size: 36px;&quot;&gt;포인트 결제 페이지&lt;/span&gt;" style="text;html=1;align=center;verticalAlign=middle;whiteSpace=wrap;rounded=0;" vertex="1" parent="1">
          <mxGeometry x="3921" y="797" width="500" height="30" as="geometry" />
        </mxCell>
        <mxCell id="sEEItQU2I7kSX01EIMOG-110" value="" style="rounded=0;whiteSpace=wrap;html=1;strokeColor=none;shadow=1;" vertex="1" parent="1">
          <mxGeometry x="4471" y="720" width="500" height="600" as="geometry" />
        </mxCell>
        <mxCell id="sEEItQU2I7kSX01EIMOG-111" value="" style="rounded=0;whiteSpace=wrap;html=1;fillColor=#808080;shadow=0;strokeColor=none;" vertex="1" parent="1">
          <mxGeometry x="4471" y="720" width="500" height="40" as="geometry" />
        </mxCell>
        <mxCell id="sEEItQU2I7kSX01EIMOG-112" value="" style="ellipse;whiteSpace=wrap;html=1;aspect=fixed;strokeColor=none;fillColor=#C4C4C4;" vertex="1" parent="1">
          <mxGeometry x="4481" y="725" width="30" height="30" as="geometry" />
        </mxCell>
        <mxCell id="sEEItQU2I7kSX01EIMOG-113" value="" style="ellipse;whiteSpace=wrap;html=1;aspect=fixed;strokeColor=none;fillColor=#C4C4C4;" vertex="1" parent="1">
          <mxGeometry x="4521" y="725" width="30" height="30" as="geometry" />
        </mxCell>
        <mxCell id="sEEItQU2I7kSX01EIMOG-114" value="" style="ellipse;whiteSpace=wrap;html=1;aspect=fixed;strokeColor=none;fillColor=#C4C4C4;" vertex="1" parent="1">
          <mxGeometry x="4561" y="725" width="30" height="30" as="geometry" />
        </mxCell>
        <mxCell id="sEEItQU2I7kSX01EIMOG-115" value="&lt;font style=&quot;font-size: 24px;&quot;&gt;( /purchases&lt;/font&gt;&lt;span style=&quot;font-size: 24px; background-color: transparent; color: light-dark(rgb(0, 0, 0), rgb(255, 255, 255));&quot;&gt;&amp;nbsp;)&lt;/span&gt;" style="text;html=1;align=center;verticalAlign=middle;whiteSpace=wrap;rounded=0;" vertex="1" parent="1">
          <mxGeometry x="4471" y="763" width="500" height="30" as="geometry" />
        </mxCell>
        <mxCell id="sEEItQU2I7kSX01EIMOG-116" value="&lt;span style=&quot;font-size: 36px;&quot;&gt;결제 기록 페이지&lt;/span&gt;" style="text;html=1;align=center;verticalAlign=middle;whiteSpace=wrap;rounded=0;" vertex="1" parent="1">
          <mxGeometry x="4471" y="797" width="500" height="30" as="geometry" />
        </mxCell>
        <mxCell id="sEEItQU2I7kSX01EIMOG-117" value="" style="rounded=0;whiteSpace=wrap;html=1;strokeColor=none;shadow=1;" vertex="1" parent="1">
          <mxGeometry x="-1039" y="1370" width="500" height="600" as="geometry" />
        </mxCell>
        <mxCell id="sEEItQU2I7kSX01EIMOG-118" value="" style="rounded=0;whiteSpace=wrap;html=1;fillColor=#808080;shadow=0;strokeColor=none;" vertex="1" parent="1">
          <mxGeometry x="-1039" y="1370" width="500" height="40" as="geometry" />
        </mxCell>
        <mxCell id="sEEItQU2I7kSX01EIMOG-119" value="" style="ellipse;whiteSpace=wrap;html=1;aspect=fixed;strokeColor=none;fillColor=#C4C4C4;" vertex="1" parent="1">
          <mxGeometry x="-1029" y="1375" width="30" height="30" as="geometry" />
        </mxCell>
        <mxCell id="sEEItQU2I7kSX01EIMOG-120" value="" style="ellipse;whiteSpace=wrap;html=1;aspect=fixed;strokeColor=none;fillColor=#C4C4C4;" vertex="1" parent="1">
          <mxGeometry x="-989" y="1375" width="30" height="30" as="geometry" />
        </mxCell>
        <mxCell id="sEEItQU2I7kSX01EIMOG-121" value="" style="ellipse;whiteSpace=wrap;html=1;aspect=fixed;strokeColor=none;fillColor=#C4C4C4;" vertex="1" parent="1">
          <mxGeometry x="-949" y="1375" width="30" height="30" as="geometry" />
        </mxCell>
        <mxCell id="sEEItQU2I7kSX01EIMOG-122" value="&lt;font style=&quot;font-size: 24px;&quot;&gt;( /counselor )&lt;/font&gt;" style="text;html=1;align=center;verticalAlign=middle;whiteSpace=wrap;rounded=0;" vertex="1" parent="1">
          <mxGeometry x="-1039" y="1413" width="500" height="30" as="geometry" />
        </mxCell>
        <mxCell id="sEEItQU2I7kSX01EIMOG-123" value="&lt;span style=&quot;font-size: 36px;&quot;&gt;상담가 검색 페이지&lt;/span&gt;" style="text;html=1;align=center;verticalAlign=middle;whiteSpace=wrap;rounded=0;" vertex="1" parent="1">
          <mxGeometry x="-1039" y="1447" width="500" height="30" as="geometry" />
        </mxCell>
        <mxCell id="sEEItQU2I7kSX01EIMOG-124" value="" style="rounded=0;whiteSpace=wrap;html=1;strokeColor=none;shadow=1;" vertex="1" parent="1">
          <mxGeometry x="-489" y="1370" width="500" height="600" as="geometry" />
        </mxCell>
        <mxCell id="sEEItQU2I7kSX01EIMOG-125" value="" style="rounded=0;whiteSpace=wrap;html=1;fillColor=#808080;shadow=0;strokeColor=none;" vertex="1" parent="1">
          <mxGeometry x="-489" y="1370" width="500" height="40" as="geometry" />
        </mxCell>
        <mxCell id="sEEItQU2I7kSX01EIMOG-126" value="" style="ellipse;whiteSpace=wrap;html=1;aspect=fixed;strokeColor=none;fillColor=#C4C4C4;" vertex="1" parent="1">
          <mxGeometry x="-479" y="1375" width="30" height="30" as="geometry" />
        </mxCell>
        <mxCell id="sEEItQU2I7kSX01EIMOG-127" value="" style="ellipse;whiteSpace=wrap;html=1;aspect=fixed;strokeColor=none;fillColor=#C4C4C4;" vertex="1" parent="1">
          <mxGeometry x="-439" y="1375" width="30" height="30" as="geometry" />
        </mxCell>
        <mxCell id="sEEItQU2I7kSX01EIMOG-128" value="" style="ellipse;whiteSpace=wrap;html=1;aspect=fixed;strokeColor=none;fillColor=#C4C4C4;" vertex="1" parent="1">
          <mxGeometry x="-399" y="1375" width="30" height="30" as="geometry" />
        </mxCell>
        <mxCell id="sEEItQU2I7kSX01EIMOG-129" value="&lt;font style=&quot;font-size: 24px;&quot;&gt;( /counselor/view )&lt;/font&gt;" style="text;html=1;align=center;verticalAlign=middle;whiteSpace=wrap;rounded=0;" vertex="1" parent="1">
          <mxGeometry x="-489" y="1413" width="500" height="30" as="geometry" />
        </mxCell>
        <mxCell id="sEEItQU2I7kSX01EIMOG-130" value="&lt;span style=&quot;font-size: 36px;&quot;&gt;상담가 페이지&lt;/span&gt;" style="text;html=1;align=center;verticalAlign=middle;whiteSpace=wrap;rounded=0;" vertex="1" parent="1">
          <mxGeometry x="-489" y="1447" width="500" height="30" as="geometry" />
        </mxCell>
        <mxCell id="sEEItQU2I7kSX01EIMOG-131" value="" style="rounded=0;whiteSpace=wrap;html=1;strokeColor=none;shadow=1;" vertex="1" parent="1">
          <mxGeometry x="611" y="1370" width="500" height="600" as="geometry" />
        </mxCell>
        <mxCell id="sEEItQU2I7kSX01EIMOG-132" value="" style="rounded=0;whiteSpace=wrap;html=1;fillColor=#808080;shadow=0;strokeColor=none;" vertex="1" parent="1">
          <mxGeometry x="611" y="1370" width="500" height="40" as="geometry" />
        </mxCell>
        <mxCell id="sEEItQU2I7kSX01EIMOG-133" value="" style="ellipse;whiteSpace=wrap;html=1;aspect=fixed;strokeColor=none;fillColor=#C4C4C4;" vertex="1" parent="1">
          <mxGeometry x="621" y="1375" width="30" height="30" as="geometry" />
        </mxCell>
        <mxCell id="sEEItQU2I7kSX01EIMOG-134" value="" style="ellipse;whiteSpace=wrap;html=1;aspect=fixed;strokeColor=none;fillColor=#C4C4C4;" vertex="1" parent="1">
          <mxGeometry x="661" y="1375" width="30" height="30" as="geometry" />
        </mxCell>
        <mxCell id="sEEItQU2I7kSX01EIMOG-135" value="" style="ellipse;whiteSpace=wrap;html=1;aspect=fixed;strokeColor=none;fillColor=#C4C4C4;" vertex="1" parent="1">
          <mxGeometry x="701" y="1375" width="30" height="30" as="geometry" />
        </mxCell>
        <mxCell id="sEEItQU2I7kSX01EIMOG-136" value="&lt;font style=&quot;font-size: 24px;&quot;&gt;( /counselor/profile )&lt;/font&gt;" style="text;html=1;align=center;verticalAlign=middle;whiteSpace=wrap;rounded=0;" vertex="1" parent="1">
          <mxGeometry x="611" y="1413" width="500" height="30" as="geometry" />
        </mxCell>
        <mxCell id="sEEItQU2I7kSX01EIMOG-137" value="&lt;span style=&quot;font-size: 36px;&quot;&gt;상담가 프로필 관리 페이지&lt;/span&gt;" style="text;html=1;align=center;verticalAlign=middle;whiteSpace=wrap;rounded=0;" vertex="1" parent="1">
          <mxGeometry x="611" y="1447" width="500" height="30" as="geometry" />
        </mxCell>
        <mxCell id="sEEItQU2I7kSX01EIMOG-138" value="" style="rounded=0;whiteSpace=wrap;html=1;strokeColor=none;shadow=1;" vertex="1" parent="1">
          <mxGeometry x="-1039" y="2032" width="500" height="600" as="geometry" />
        </mxCell>
        <mxCell id="sEEItQU2I7kSX01EIMOG-139" value="" style="rounded=0;whiteSpace=wrap;html=1;fillColor=#808080;shadow=0;strokeColor=none;" vertex="1" parent="1">
          <mxGeometry x="-1039" y="2032" width="500" height="40" as="geometry" />
        </mxCell>
        <mxCell id="sEEItQU2I7kSX01EIMOG-140" value="" style="ellipse;whiteSpace=wrap;html=1;aspect=fixed;strokeColor=none;fillColor=#C4C4C4;" vertex="1" parent="1">
          <mxGeometry x="-1029" y="2037" width="30" height="30" as="geometry" />
        </mxCell>
        <mxCell id="sEEItQU2I7kSX01EIMOG-141" value="" style="ellipse;whiteSpace=wrap;html=1;aspect=fixed;strokeColor=none;fillColor=#C4C4C4;" vertex="1" parent="1">
          <mxGeometry x="-989" y="2037" width="30" height="30" as="geometry" />
        </mxCell>
        <mxCell id="sEEItQU2I7kSX01EIMOG-142" value="" style="ellipse;whiteSpace=wrap;html=1;aspect=fixed;strokeColor=none;fillColor=#C4C4C4;" vertex="1" parent="1">
          <mxGeometry x="-949" y="2037" width="30" height="30" as="geometry" />
        </mxCell>
        <mxCell id="sEEItQU2I7kSX01EIMOG-143" value="&lt;font style=&quot;font-size: 24px;&quot;&gt;( /board )&lt;/font&gt;" style="text;html=1;align=center;verticalAlign=middle;whiteSpace=wrap;rounded=0;" vertex="1" parent="1">
          <mxGeometry x="-1039" y="2075" width="500" height="30" as="geometry" />
        </mxCell>
        <mxCell id="sEEItQU2I7kSX01EIMOG-144" value="&lt;span style=&quot;font-size: 36px;&quot;&gt;게시판 페이지&lt;/span&gt;" style="text;html=1;align=center;verticalAlign=middle;whiteSpace=wrap;rounded=0;" vertex="1" parent="1">
          <mxGeometry x="-1039" y="2109" width="500" height="30" as="geometry" />
        </mxCell>
        <mxCell id="sEEItQU2I7kSX01EIMOG-145" value="" style="rounded=0;whiteSpace=wrap;html=1;strokeColor=none;shadow=1;" vertex="1" parent="1">
          <mxGeometry x="-489" y="2032" width="500" height="600" as="geometry" />
        </mxCell>
        <mxCell id="sEEItQU2I7kSX01EIMOG-146" value="" style="rounded=0;whiteSpace=wrap;html=1;fillColor=#808080;shadow=0;strokeColor=none;" vertex="1" parent="1">
          <mxGeometry x="-489" y="2032" width="500" height="40" as="geometry" />
        </mxCell>
        <mxCell id="sEEItQU2I7kSX01EIMOG-147" value="" style="ellipse;whiteSpace=wrap;html=1;aspect=fixed;strokeColor=none;fillColor=#C4C4C4;" vertex="1" parent="1">
          <mxGeometry x="-479" y="2037" width="30" height="30" as="geometry" />
        </mxCell>
        <mxCell id="sEEItQU2I7kSX01EIMOG-148" value="" style="ellipse;whiteSpace=wrap;html=1;aspect=fixed;strokeColor=none;fillColor=#C4C4C4;" vertex="1" parent="1">
          <mxGeometry x="-439" y="2037" width="30" height="30" as="geometry" />
        </mxCell>
        <mxCell id="sEEItQU2I7kSX01EIMOG-149" value="" style="ellipse;whiteSpace=wrap;html=1;aspect=fixed;strokeColor=none;fillColor=#C4C4C4;" vertex="1" parent="1">
          <mxGeometry x="-399" y="2037" width="30" height="30" as="geometry" />
        </mxCell>
        <mxCell id="sEEItQU2I7kSX01EIMOG-150" value="&lt;font style=&quot;font-size: 24px;&quot;&gt;( /board/post )&lt;/font&gt;" style="text;html=1;align=center;verticalAlign=middle;whiteSpace=wrap;rounded=0;" vertex="1" parent="1">
          <mxGeometry x="-489" y="2075" width="500" height="30" as="geometry" />
        </mxCell>
        <mxCell id="sEEItQU2I7kSX01EIMOG-151" value="&lt;span style=&quot;font-size: 36px;&quot;&gt;게시글 페이지&lt;/span&gt;" style="text;html=1;align=center;verticalAlign=middle;whiteSpace=wrap;rounded=0;" vertex="1" parent="1">
          <mxGeometry x="-489" y="2109" width="500" height="30" as="geometry" />
        </mxCell>
        <mxCell id="sEEItQU2I7kSX01EIMOG-152" value="" style="rounded=0;whiteSpace=wrap;html=1;strokeColor=none;shadow=1;" vertex="1" parent="1">
          <mxGeometry x="61" y="2032" width="500" height="600" as="geometry" />
        </mxCell>
        <mxCell id="sEEItQU2I7kSX01EIMOG-153" value="" style="rounded=0;whiteSpace=wrap;html=1;fillColor=#808080;shadow=0;strokeColor=none;" vertex="1" parent="1">
          <mxGeometry x="61" y="2032" width="500" height="40" as="geometry" />
        </mxCell>
        <mxCell id="sEEItQU2I7kSX01EIMOG-154" value="" style="ellipse;whiteSpace=wrap;html=1;aspect=fixed;strokeColor=none;fillColor=#C4C4C4;" vertex="1" parent="1">
          <mxGeometry x="71" y="2037" width="30" height="30" as="geometry" />
        </mxCell>
        <mxCell id="sEEItQU2I7kSX01EIMOG-155" value="" style="ellipse;whiteSpace=wrap;html=1;aspect=fixed;strokeColor=none;fillColor=#C4C4C4;" vertex="1" parent="1">
          <mxGeometry x="111" y="2037" width="30" height="30" as="geometry" />
        </mxCell>
        <mxCell id="sEEItQU2I7kSX01EIMOG-156" value="" style="ellipse;whiteSpace=wrap;html=1;aspect=fixed;strokeColor=none;fillColor=#C4C4C4;" vertex="1" parent="1">
          <mxGeometry x="151" y="2037" width="30" height="30" as="geometry" />
        </mxCell>
        <mxCell id="sEEItQU2I7kSX01EIMOG-157" value="&lt;font style=&quot;font-size: 24px;&quot;&gt;( /board/write )&lt;/font&gt;" style="text;html=1;align=center;verticalAlign=middle;whiteSpace=wrap;rounded=0;" vertex="1" parent="1">
          <mxGeometry x="61" y="2075" width="500" height="30" as="geometry" />
        </mxCell>
        <mxCell id="sEEItQU2I7kSX01EIMOG-158" value="&lt;span style=&quot;font-size: 36px;&quot;&gt;게시글 작성 페이지&lt;/span&gt;" style="text;html=1;align=center;verticalAlign=middle;whiteSpace=wrap;rounded=0;" vertex="1" parent="1">
          <mxGeometry x="61" y="2109" width="500" height="30" as="geometry" />
        </mxCell>
        <mxCell id="sEEItQU2I7kSX01EIMOG-159" value="" style="rounded=0;whiteSpace=wrap;html=1;strokeColor=none;shadow=1;" vertex="1" parent="1">
          <mxGeometry x="611" y="2032" width="500" height="600" as="geometry" />
        </mxCell>
        <mxCell id="sEEItQU2I7kSX01EIMOG-160" value="" style="rounded=0;whiteSpace=wrap;html=1;fillColor=#808080;shadow=0;strokeColor=none;" vertex="1" parent="1">
          <mxGeometry x="611" y="2032" width="500" height="40" as="geometry" />
        </mxCell>
        <mxCell id="sEEItQU2I7kSX01EIMOG-161" value="" style="ellipse;whiteSpace=wrap;html=1;aspect=fixed;strokeColor=none;fillColor=#C4C4C4;" vertex="1" parent="1">
          <mxGeometry x="621" y="2037" width="30" height="30" as="geometry" />
        </mxCell>
        <mxCell id="sEEItQU2I7kSX01EIMOG-162" value="" style="ellipse;whiteSpace=wrap;html=1;aspect=fixed;strokeColor=none;fillColor=#C4C4C4;" vertex="1" parent="1">
          <mxGeometry x="661" y="2037" width="30" height="30" as="geometry" />
        </mxCell>
        <mxCell id="sEEItQU2I7kSX01EIMOG-163" value="" style="ellipse;whiteSpace=wrap;html=1;aspect=fixed;strokeColor=none;fillColor=#C4C4C4;" vertex="1" parent="1">
          <mxGeometry x="701" y="2037" width="30" height="30" as="geometry" />
        </mxCell>
        <mxCell id="sEEItQU2I7kSX01EIMOG-164" value="&lt;font style=&quot;font-size: 24px;&quot;&gt;( /board/rewrite )&lt;/font&gt;" style="text;html=1;align=center;verticalAlign=middle;whiteSpace=wrap;rounded=0;" vertex="1" parent="1">
          <mxGeometry x="611" y="2075" width="500" height="30" as="geometry" />
        </mxCell>
        <mxCell id="sEEItQU2I7kSX01EIMOG-165" value="&lt;span style=&quot;font-size: 36px;&quot;&gt;게시글 수정 페이지&lt;/span&gt;" style="text;html=1;align=center;verticalAlign=middle;whiteSpace=wrap;rounded=0;" vertex="1" parent="1">
          <mxGeometry x="611" y="2109" width="500" height="30" as="geometry" />
        </mxCell>
        <mxCell id="sEEItQU2I7kSX01EIMOG-166" value="" style="rounded=0;whiteSpace=wrap;html=1;strokeColor=none;shadow=1;" vertex="1" parent="1">
          <mxGeometry x="-1039" y="2690" width="500" height="600" as="geometry" />
        </mxCell>
        <mxCell id="sEEItQU2I7kSX01EIMOG-167" value="" style="rounded=0;whiteSpace=wrap;html=1;fillColor=#808080;shadow=0;strokeColor=none;" vertex="1" parent="1">
          <mxGeometry x="-1039" y="2690" width="500" height="40" as="geometry" />
        </mxCell>
        <mxCell id="sEEItQU2I7kSX01EIMOG-168" value="" style="ellipse;whiteSpace=wrap;html=1;aspect=fixed;strokeColor=none;fillColor=#C4C4C4;" vertex="1" parent="1">
          <mxGeometry x="-1029" y="2695" width="30" height="30" as="geometry" />
        </mxCell>
        <mxCell id="sEEItQU2I7kSX01EIMOG-169" value="" style="ellipse;whiteSpace=wrap;html=1;aspect=fixed;strokeColor=none;fillColor=#C4C4C4;" vertex="1" parent="1">
          <mxGeometry x="-989" y="2695" width="30" height="30" as="geometry" />
        </mxCell>
        <mxCell id="sEEItQU2I7kSX01EIMOG-170" value="" style="ellipse;whiteSpace=wrap;html=1;aspect=fixed;strokeColor=none;fillColor=#C4C4C4;" vertex="1" parent="1">
          <mxGeometry x="-949" y="2695" width="30" height="30" as="geometry" />
        </mxCell>
        <mxCell id="sEEItQU2I7kSX01EIMOG-171" value="&lt;font style=&quot;font-size: 24px;&quot;&gt;( /chat )&lt;/font&gt;" style="text;html=1;align=center;verticalAlign=middle;whiteSpace=wrap;rounded=0;" vertex="1" parent="1">
          <mxGeometry x="-1039" y="2733" width="500" height="30" as="geometry" />
        </mxCell>
        <mxCell id="sEEItQU2I7kSX01EIMOG-172" value="&lt;span style=&quot;font-size: 36px;&quot;&gt;채팅방 페이지&lt;/span&gt;" style="text;html=1;align=center;verticalAlign=middle;whiteSpace=wrap;rounded=0;" vertex="1" parent="1">
          <mxGeometry x="-1039" y="2767" width="500" height="30" as="geometry" />
        </mxCell>
        <mxCell id="sEEItQU2I7kSX01EIMOG-173" value="" style="rounded=0;whiteSpace=wrap;html=1;strokeColor=none;shadow=1;" vertex="1" parent="1">
          <mxGeometry x="-489" y="2690" width="500" height="600" as="geometry" />
        </mxCell>
        <mxCell id="sEEItQU2I7kSX01EIMOG-174" value="" style="rounded=0;whiteSpace=wrap;html=1;fillColor=#808080;shadow=0;strokeColor=none;" vertex="1" parent="1">
          <mxGeometry x="-489" y="2690" width="500" height="40" as="geometry" />
        </mxCell>
        <mxCell id="sEEItQU2I7kSX01EIMOG-175" value="" style="ellipse;whiteSpace=wrap;html=1;aspect=fixed;strokeColor=none;fillColor=#C4C4C4;" vertex="1" parent="1">
          <mxGeometry x="-479" y="2695" width="30" height="30" as="geometry" />
        </mxCell>
        <mxCell id="sEEItQU2I7kSX01EIMOG-176" value="" style="ellipse;whiteSpace=wrap;html=1;aspect=fixed;strokeColor=none;fillColor=#C4C4C4;" vertex="1" parent="1">
          <mxGeometry x="-439" y="2695" width="30" height="30" as="geometry" />
        </mxCell>
        <mxCell id="sEEItQU2I7kSX01EIMOG-177" value="" style="ellipse;whiteSpace=wrap;html=1;aspect=fixed;strokeColor=none;fillColor=#C4C4C4;" vertex="1" parent="1">
          <mxGeometry x="-399" y="2695" width="30" height="30" as="geometry" />
        </mxCell>
        <mxCell id="sEEItQU2I7kSX01EIMOG-178" value="&lt;font style=&quot;font-size: 24px;&quot;&gt;( /chat/dm )&lt;/font&gt;" style="text;html=1;align=center;verticalAlign=middle;whiteSpace=wrap;rounded=0;" vertex="1" parent="1">
          <mxGeometry x="-489" y="2733" width="500" height="30" as="geometry" />
        </mxCell>
        <mxCell id="sEEItQU2I7kSX01EIMOG-179" value="&lt;span style=&quot;font-size: 36px;&quot;&gt;채팅 페이지&lt;/span&gt;" style="text;html=1;align=center;verticalAlign=middle;whiteSpace=wrap;rounded=0;" vertex="1" parent="1">
          <mxGeometry x="-489" y="2767" width="500" height="30" as="geometry" />
        </mxCell>
        <mxCell id="sEEItQU2I7kSX01EIMOG-180" value="" style="rounded=0;whiteSpace=wrap;html=1;strokeColor=none;shadow=1;" vertex="1" parent="1">
          <mxGeometry x="61" y="1370" width="500" height="600" as="geometry" />
        </mxCell>
        <mxCell id="sEEItQU2I7kSX01EIMOG-181" value="" style="rounded=0;whiteSpace=wrap;html=1;fillColor=#808080;shadow=0;strokeColor=none;" vertex="1" parent="1">
          <mxGeometry x="61" y="1370" width="500" height="40" as="geometry" />
        </mxCell>
        <mxCell id="sEEItQU2I7kSX01EIMOG-182" value="" style="ellipse;whiteSpace=wrap;html=1;aspect=fixed;strokeColor=none;fillColor=#C4C4C4;" vertex="1" parent="1">
          <mxGeometry x="71" y="1375" width="30" height="30" as="geometry" />
        </mxCell>
        <mxCell id="sEEItQU2I7kSX01EIMOG-183" value="" style="ellipse;whiteSpace=wrap;html=1;aspect=fixed;strokeColor=none;fillColor=#C4C4C4;" vertex="1" parent="1">
          <mxGeometry x="111" y="1375" width="30" height="30" as="geometry" />
        </mxCell>
        <mxCell id="sEEItQU2I7kSX01EIMOG-184" value="" style="ellipse;whiteSpace=wrap;html=1;aspect=fixed;strokeColor=none;fillColor=#C4C4C4;" vertex="1" parent="1">
          <mxGeometry x="151" y="1375" width="30" height="30" as="geometry" />
        </mxCell>
        <mxCell id="sEEItQU2I7kSX01EIMOG-185" value="&lt;font style=&quot;font-size: 24px;&quot;&gt;( /counselor/purchase )&lt;/font&gt;" style="text;html=1;align=center;verticalAlign=middle;whiteSpace=wrap;rounded=0;" vertex="1" parent="1">
          <mxGeometry x="61" y="1413" width="500" height="30" as="geometry" />
        </mxCell>
        <mxCell id="sEEItQU2I7kSX01EIMOG-186" value="&lt;span style=&quot;font-size: 36px;&quot;&gt;상담가 서비스 결제 페이지&lt;/span&gt;" style="text;html=1;align=center;verticalAlign=middle;whiteSpace=wrap;rounded=0;" vertex="1" parent="1">
          <mxGeometry x="61" y="1447" width="500" height="30" as="geometry" />
        </mxCell>
        <mxCell id="sEEItQU2I7kSX01EIMOG-187" value="" style="rounded=0;whiteSpace=wrap;html=1;strokeColor=none;shadow=1;" vertex="1" parent="1">
          <mxGeometry x="-1039" y="3350" width="500" height="600" as="geometry" />
        </mxCell>
        <mxCell id="sEEItQU2I7kSX01EIMOG-188" value="" style="rounded=0;whiteSpace=wrap;html=1;fillColor=#808080;shadow=0;strokeColor=none;" vertex="1" parent="1">
          <mxGeometry x="-1039" y="3350" width="500" height="40" as="geometry" />
        </mxCell>
        <mxCell id="sEEItQU2I7kSX01EIMOG-189" value="" style="ellipse;whiteSpace=wrap;html=1;aspect=fixed;strokeColor=none;fillColor=#C4C4C4;" vertex="1" parent="1">
          <mxGeometry x="-1029" y="3355" width="30" height="30" as="geometry" />
        </mxCell>
        <mxCell id="sEEItQU2I7kSX01EIMOG-190" value="" style="ellipse;whiteSpace=wrap;html=1;aspect=fixed;strokeColor=none;fillColor=#C4C4C4;" vertex="1" parent="1">
          <mxGeometry x="-989" y="3355" width="30" height="30" as="geometry" />
        </mxCell>
        <mxCell id="sEEItQU2I7kSX01EIMOG-191" value="" style="ellipse;whiteSpace=wrap;html=1;aspect=fixed;strokeColor=none;fillColor=#C4C4C4;" vertex="1" parent="1">
          <mxGeometry x="-949" y="3355" width="30" height="30" as="geometry" />
        </mxCell>
        <mxCell id="sEEItQU2I7kSX01EIMOG-192" value="&lt;font style=&quot;font-size: 24px;&quot;&gt;( /supervisor )&lt;/font&gt;" style="text;html=1;align=center;verticalAlign=middle;whiteSpace=wrap;rounded=0;" vertex="1" parent="1">
          <mxGeometry x="-1039" y="3393" width="500" height="30" as="geometry" />
        </mxCell>
        <mxCell id="sEEItQU2I7kSX01EIMOG-193" value="&lt;span style=&quot;font-size: 36px;&quot;&gt;사이트 관리자 메뉴 페이지&lt;/span&gt;" style="text;html=1;align=center;verticalAlign=middle;whiteSpace=wrap;rounded=0;" vertex="1" parent="1">
          <mxGeometry x="-1039" y="3427" width="500" height="30" as="geometry" />
        </mxCell>
        <mxCell id="sEEItQU2I7kSX01EIMOG-194" value="" style="rounded=0;whiteSpace=wrap;html=1;strokeColor=none;shadow=1;" vertex="1" parent="1">
          <mxGeometry x="-489" y="3350" width="500" height="600" as="geometry" />
        </mxCell>
        <mxCell id="sEEItQU2I7kSX01EIMOG-195" value="" style="rounded=0;whiteSpace=wrap;html=1;fillColor=#808080;shadow=0;strokeColor=none;" vertex="1" parent="1">
          <mxGeometry x="-489" y="3350" width="500" height="40" as="geometry" />
        </mxCell>
        <mxCell id="sEEItQU2I7kSX01EIMOG-196" value="" style="ellipse;whiteSpace=wrap;html=1;aspect=fixed;strokeColor=none;fillColor=#C4C4C4;" vertex="1" parent="1">
          <mxGeometry x="-479" y="3355" width="30" height="30" as="geometry" />
        </mxCell>
        <mxCell id="sEEItQU2I7kSX01EIMOG-197" value="" style="ellipse;whiteSpace=wrap;html=1;aspect=fixed;strokeColor=none;fillColor=#C4C4C4;" vertex="1" parent="1">
          <mxGeometry x="-439" y="3355" width="30" height="30" as="geometry" />
        </mxCell>
        <mxCell id="sEEItQU2I7kSX01EIMOG-198" value="" style="ellipse;whiteSpace=wrap;html=1;aspect=fixed;strokeColor=none;fillColor=#C4C4C4;" vertex="1" parent="1">
          <mxGeometry x="-399" y="3355" width="30" height="30" as="geometry" />
        </mxCell>
        <mxCell id="sEEItQU2I7kSX01EIMOG-199" value="&lt;font style=&quot;font-size: 24px;&quot;&gt;( /supervisor/user )&lt;/font&gt;" style="text;html=1;align=center;verticalAlign=middle;whiteSpace=wrap;rounded=0;" vertex="1" parent="1">
          <mxGeometry x="-489" y="3393" width="500" height="30" as="geometry" />
        </mxCell>
        <mxCell id="sEEItQU2I7kSX01EIMOG-200" value="&lt;span style=&quot;font-size: 36px;&quot;&gt;사용자 관리 페이지&lt;/span&gt;" style="text;html=1;align=center;verticalAlign=middle;whiteSpace=wrap;rounded=0;" vertex="1" parent="1">
          <mxGeometry x="-489" y="3427" width="500" height="30" as="geometry" />
        </mxCell>
        <mxCell id="sEEItQU2I7kSX01EIMOG-201" value="" style="rounded=0;whiteSpace=wrap;html=1;strokeColor=none;shadow=1;" vertex="1" parent="1">
          <mxGeometry x="61" y="3350" width="500" height="600" as="geometry" />
        </mxCell>
        <mxCell id="sEEItQU2I7kSX01EIMOG-202" value="" style="rounded=0;whiteSpace=wrap;html=1;fillColor=#808080;shadow=0;strokeColor=none;" vertex="1" parent="1">
          <mxGeometry x="61" y="3350" width="500" height="40" as="geometry" />
        </mxCell>
        <mxCell id="sEEItQU2I7kSX01EIMOG-203" value="" style="ellipse;whiteSpace=wrap;html=1;aspect=fixed;strokeColor=none;fillColor=#C4C4C4;" vertex="1" parent="1">
          <mxGeometry x="71" y="3355" width="30" height="30" as="geometry" />
        </mxCell>
        <mxCell id="sEEItQU2I7kSX01EIMOG-204" value="" style="ellipse;whiteSpace=wrap;html=1;aspect=fixed;strokeColor=none;fillColor=#C4C4C4;" vertex="1" parent="1">
          <mxGeometry x="111" y="3355" width="30" height="30" as="geometry" />
        </mxCell>
        <mxCell id="sEEItQU2I7kSX01EIMOG-205" value="" style="ellipse;whiteSpace=wrap;html=1;aspect=fixed;strokeColor=none;fillColor=#C4C4C4;" vertex="1" parent="1">
          <mxGeometry x="151" y="3355" width="30" height="30" as="geometry" />
        </mxCell>
        <mxCell id="sEEItQU2I7kSX01EIMOG-206" value="&lt;font style=&quot;font-size: 24px;&quot;&gt;( /supervisor/counselor )&lt;/font&gt;" style="text;html=1;align=center;verticalAlign=middle;whiteSpace=wrap;rounded=0;" vertex="1" parent="1">
          <mxGeometry x="61" y="3393" width="500" height="30" as="geometry" />
        </mxCell>
        <mxCell id="sEEItQU2I7kSX01EIMOG-207" value="&lt;span style=&quot;font-size: 36px;&quot;&gt;사주 상담가 관리 페이지&lt;/span&gt;" style="text;html=1;align=center;verticalAlign=middle;whiteSpace=wrap;rounded=0;" vertex="1" parent="1">
          <mxGeometry x="61" y="3427" width="500" height="30" as="geometry" />
        </mxCell>
        <mxCell id="sEEItQU2I7kSX01EIMOG-208" value="" style="rounded=0;whiteSpace=wrap;html=1;strokeColor=none;shadow=1;" vertex="1" parent="1">
          <mxGeometry x="611" y="3350" width="500" height="600" as="geometry" />
        </mxCell>
        <mxCell id="sEEItQU2I7kSX01EIMOG-209" value="" style="rounded=0;whiteSpace=wrap;html=1;fillColor=#808080;shadow=0;strokeColor=none;" vertex="1" parent="1">
          <mxGeometry x="611" y="3350" width="500" height="40" as="geometry" />
        </mxCell>
        <mxCell id="sEEItQU2I7kSX01EIMOG-210" value="" style="ellipse;whiteSpace=wrap;html=1;aspect=fixed;strokeColor=none;fillColor=#C4C4C4;" vertex="1" parent="1">
          <mxGeometry x="621" y="3355" width="30" height="30" as="geometry" />
        </mxCell>
        <mxCell id="sEEItQU2I7kSX01EIMOG-211" value="" style="ellipse;whiteSpace=wrap;html=1;aspect=fixed;strokeColor=none;fillColor=#C4C4C4;" vertex="1" parent="1">
          <mxGeometry x="661" y="3355" width="30" height="30" as="geometry" />
        </mxCell>
        <mxCell id="sEEItQU2I7kSX01EIMOG-212" value="" style="ellipse;whiteSpace=wrap;html=1;aspect=fixed;strokeColor=none;fillColor=#C4C4C4;" vertex="1" parent="1">
          <mxGeometry x="701" y="3355" width="30" height="30" as="geometry" />
        </mxCell>
        <mxCell id="sEEItQU2I7kSX01EIMOG-213" value="&lt;font style=&quot;font-size: 24px;&quot;&gt;( /supervisor/point_shop )&lt;/font&gt;" style="text;html=1;align=center;verticalAlign=middle;whiteSpace=wrap;rounded=0;" vertex="1" parent="1">
          <mxGeometry x="611" y="3393" width="500" height="30" as="geometry" />
        </mxCell>
        <mxCell id="sEEItQU2I7kSX01EIMOG-214" value="&lt;span style=&quot;font-size: 36px;&quot;&gt;포인트 상점 관리 페이지&lt;/span&gt;" style="text;html=1;align=center;verticalAlign=middle;whiteSpace=wrap;rounded=0;" vertex="1" parent="1">
          <mxGeometry x="611" y="3427" width="500" height="30" as="geometry" />
        </mxCell>
        <mxCell id="sEEItQU2I7kSX01EIMOG-215" value="" style="rounded=0;whiteSpace=wrap;html=1;strokeColor=none;shadow=1;" vertex="1" parent="1">
          <mxGeometry x="1161" y="3350" width="500" height="600" as="geometry" />
        </mxCell>
        <mxCell id="sEEItQU2I7kSX01EIMOG-216" value="" style="rounded=0;whiteSpace=wrap;html=1;fillColor=#808080;shadow=0;strokeColor=none;" vertex="1" parent="1">
          <mxGeometry x="1161" y="3350" width="500" height="40" as="geometry" />
        </mxCell>
        <mxCell id="sEEItQU2I7kSX01EIMOG-217" value="" style="ellipse;whiteSpace=wrap;html=1;aspect=fixed;strokeColor=none;fillColor=#C4C4C4;" vertex="1" parent="1">
          <mxGeometry x="1171" y="3355" width="30" height="30" as="geometry" />
        </mxCell>
        <mxCell id="sEEItQU2I7kSX01EIMOG-218" value="" style="ellipse;whiteSpace=wrap;html=1;aspect=fixed;strokeColor=none;fillColor=#C4C4C4;" vertex="1" parent="1">
          <mxGeometry x="1211" y="3355" width="30" height="30" as="geometry" />
        </mxCell>
        <mxCell id="sEEItQU2I7kSX01EIMOG-219" value="" style="ellipse;whiteSpace=wrap;html=1;aspect=fixed;strokeColor=none;fillColor=#C4C4C4;" vertex="1" parent="1">
          <mxGeometry x="1251" y="3355" width="30" height="30" as="geometry" />
        </mxCell>
        <mxCell id="sEEItQU2I7kSX01EIMOG-220" value="&lt;font style=&quot;font-size: 24px;&quot;&gt;( /supervisor/purchase )&lt;/font&gt;" style="text;html=1;align=center;verticalAlign=middle;whiteSpace=wrap;rounded=0;" vertex="1" parent="1">
          <mxGeometry x="1161" y="3393" width="500" height="30" as="geometry" />
        </mxCell>
        <mxCell id="sEEItQU2I7kSX01EIMOG-221" value="&lt;span style=&quot;font-size: 36px;&quot;&gt;결제 기록 페이지&lt;/span&gt;" style="text;html=1;align=center;verticalAlign=middle;whiteSpace=wrap;rounded=0;" vertex="1" parent="1">
          <mxGeometry x="1161" y="3427" width="500" height="30" as="geometry" />
        </mxCell>
        <mxCell id="sEEItQU2I7kSX01EIMOG-222" value="" style="rounded=0;whiteSpace=wrap;html=1;strokeColor=none;shadow=1;" vertex="1" parent="1">
          <mxGeometry x="1711" y="3350" width="500" height="600" as="geometry" />
        </mxCell>
        <mxCell id="sEEItQU2I7kSX01EIMOG-223" value="" style="rounded=0;whiteSpace=wrap;html=1;fillColor=#808080;shadow=0;strokeColor=none;" vertex="1" parent="1">
          <mxGeometry x="1711" y="3350" width="500" height="40" as="geometry" />
        </mxCell>
        <mxCell id="sEEItQU2I7kSX01EIMOG-224" value="" style="ellipse;whiteSpace=wrap;html=1;aspect=fixed;strokeColor=none;fillColor=#C4C4C4;" vertex="1" parent="1">
          <mxGeometry x="1721" y="3355" width="30" height="30" as="geometry" />
        </mxCell>
        <mxCell id="sEEItQU2I7kSX01EIMOG-225" value="" style="ellipse;whiteSpace=wrap;html=1;aspect=fixed;strokeColor=none;fillColor=#C4C4C4;" vertex="1" parent="1">
          <mxGeometry x="1761" y="3355" width="30" height="30" as="geometry" />
        </mxCell>
        <mxCell id="sEEItQU2I7kSX01EIMOG-226" value="" style="ellipse;whiteSpace=wrap;html=1;aspect=fixed;strokeColor=none;fillColor=#C4C4C4;" vertex="1" parent="1">
          <mxGeometry x="1801" y="3355" width="30" height="30" as="geometry" />
        </mxCell>
        <mxCell id="sEEItQU2I7kSX01EIMOG-227" value="&lt;font style=&quot;font-size: 24px;&quot;&gt;( /supervisor/send_push )&lt;/font&gt;" style="text;html=1;align=center;verticalAlign=middle;whiteSpace=wrap;rounded=0;" vertex="1" parent="1">
          <mxGeometry x="1711" y="3393" width="500" height="30" as="geometry" />
        </mxCell>
        <mxCell id="sEEItQU2I7kSX01EIMOG-228" value="&lt;span style=&quot;font-size: 36px;&quot;&gt;푸시 알림 발송 페이지&lt;/span&gt;" style="text;html=1;align=center;verticalAlign=middle;whiteSpace=wrap;rounded=0;" vertex="1" parent="1">
          <mxGeometry x="1711" y="3427" width="500" height="30" as="geometry" />
        </mxCell>
        <mxCell id="sEEItQU2I7kSX01EIMOG-229" value="" style="rounded=0;whiteSpace=wrap;html=1;strokeColor=none;shadow=1;" vertex="1" parent="1">
          <mxGeometry x="2261" y="3350" width="500" height="600" as="geometry" />
        </mxCell>
        <mxCell id="sEEItQU2I7kSX01EIMOG-230" value="" style="rounded=0;whiteSpace=wrap;html=1;fillColor=#808080;shadow=0;strokeColor=none;" vertex="1" parent="1">
          <mxGeometry x="2261" y="3350" width="500" height="40" as="geometry" />
        </mxCell>
        <mxCell id="sEEItQU2I7kSX01EIMOG-231" value="" style="ellipse;whiteSpace=wrap;html=1;aspect=fixed;strokeColor=none;fillColor=#C4C4C4;" vertex="1" parent="1">
          <mxGeometry x="2271" y="3355" width="30" height="30" as="geometry" />
        </mxCell>
        <mxCell id="sEEItQU2I7kSX01EIMOG-232" value="" style="ellipse;whiteSpace=wrap;html=1;aspect=fixed;strokeColor=none;fillColor=#C4C4C4;" vertex="1" parent="1">
          <mxGeometry x="2311" y="3355" width="30" height="30" as="geometry" />
        </mxCell>
        <mxCell id="sEEItQU2I7kSX01EIMOG-233" value="" style="ellipse;whiteSpace=wrap;html=1;aspect=fixed;strokeColor=none;fillColor=#C4C4C4;" vertex="1" parent="1">
          <mxGeometry x="2351" y="3355" width="30" height="30" as="geometry" />
        </mxCell>
        <mxCell id="sEEItQU2I7kSX01EIMOG-234" value="&lt;font style=&quot;font-size: 24px;&quot;&gt;( /supervisor/chat )&lt;/font&gt;" style="text;html=1;align=center;verticalAlign=middle;whiteSpace=wrap;rounded=0;" vertex="1" parent="1">
          <mxGeometry x="2261" y="3393" width="500" height="30" as="geometry" />
        </mxCell>
        <mxCell id="sEEItQU2I7kSX01EIMOG-235" value="&lt;span style=&quot;font-size: 36px;&quot;&gt;채팅 관리 페이지&lt;/span&gt;" style="text;html=1;align=center;verticalAlign=middle;whiteSpace=wrap;rounded=0;" vertex="1" parent="1">
          <mxGeometry x="2261" y="3427" width="500" height="30" as="geometry" />
        </mxCell>
        <mxCell id="sEEItQU2I7kSX01EIMOG-236" value="" style="rounded=0;whiteSpace=wrap;html=1;strokeColor=none;shadow=1;" vertex="1" parent="1">
          <mxGeometry x="2811" y="3350" width="500" height="600" as="geometry" />
        </mxCell>
        <mxCell id="sEEItQU2I7kSX01EIMOG-237" value="" style="rounded=0;whiteSpace=wrap;html=1;fillColor=#808080;shadow=0;strokeColor=none;" vertex="1" parent="1">
          <mxGeometry x="2811" y="3350" width="500" height="40" as="geometry" />
        </mxCell>
        <mxCell id="sEEItQU2I7kSX01EIMOG-238" value="" style="ellipse;whiteSpace=wrap;html=1;aspect=fixed;strokeColor=none;fillColor=#C4C4C4;" vertex="1" parent="1">
          <mxGeometry x="2821" y="3355" width="30" height="30" as="geometry" />
        </mxCell>
        <mxCell id="sEEItQU2I7kSX01EIMOG-239" value="" style="ellipse;whiteSpace=wrap;html=1;aspect=fixed;strokeColor=none;fillColor=#C4C4C4;" vertex="1" parent="1">
          <mxGeometry x="2861" y="3355" width="30" height="30" as="geometry" />
        </mxCell>
        <mxCell id="sEEItQU2I7kSX01EIMOG-240" value="" style="ellipse;whiteSpace=wrap;html=1;aspect=fixed;strokeColor=none;fillColor=#C4C4C4;" vertex="1" parent="1">
          <mxGeometry x="2901" y="3355" width="30" height="30" as="geometry" />
        </mxCell>
        <mxCell id="sEEItQU2I7kSX01EIMOG-241" value="&lt;font style=&quot;font-size: 24px;&quot;&gt;( /supervisor/server_setting )&lt;/font&gt;" style="text;html=1;align=center;verticalAlign=middle;whiteSpace=wrap;rounded=0;" vertex="1" parent="1">
          <mxGeometry x="2811" y="3393" width="500" height="30" as="geometry" />
        </mxCell>
        <mxCell id="sEEItQU2I7kSX01EIMOG-242" value="&lt;span style=&quot;font-size: 36px;&quot;&gt;서버 세팅 페이지&lt;/span&gt;" style="text;html=1;align=center;verticalAlign=middle;whiteSpace=wrap;rounded=0;" vertex="1" parent="1">
          <mxGeometry x="2811" y="3427" width="500" height="30" as="geometry" />
        </mxCell>
        <mxCell id="sEEItQU2I7kSX01EIMOG-243" value="" style="shape=ext;double=1;rounded=0;whiteSpace=wrap;html=1;strokeColor=none;fillColor=#CCE5FF;" vertex="1" parent="1">
          <mxGeometry x="-939.5" y="1000" width="209.5" height="70" as="geometry" />
        </mxCell>
        <mxCell id="sEEItQU2I7kSX01EIMOG-244" value="" style="shape=ext;double=1;rounded=0;whiteSpace=wrap;html=1;strokeColor=none;fillColor=#C4C4C4;" vertex="1" parent="1">
          <mxGeometry x="-939.5" y="1090" width="139.5" height="70" as="geometry" />
        </mxCell>
        <mxCell id="sEEItQU2I7kSX01EIMOG-246" value="" style="shape=ext;double=1;rounded=0;whiteSpace=wrap;html=1;strokeColor=none;fillColor=#C4C4C4;" vertex="1" parent="1">
          <mxGeometry x="-710" y="1000" width="71.5" height="70" as="geometry" />
        </mxCell>
        <mxCell id="sEEItQU2I7kSX01EIMOG-247" value="" style="shape=ext;double=1;rounded=0;whiteSpace=wrap;html=1;strokeColor=none;fillColor=#C4C4C4;" vertex="1" parent="1">
          <mxGeometry x="-778" y="1090" width="139.5" height="70" as="geometry" />
        </mxCell>
        <mxCell id="sEEItQU2I7kSX01EIMOG-248" value="" style="shape=ext;double=1;rounded=0;whiteSpace=wrap;html=1;strokeColor=none;fillColor=#FFCCCC;" vertex="1" parent="1">
          <mxGeometry x="-939.5" y="1182" width="301" height="70" as="geometry" />
        </mxCell>
        <mxCell id="sEEItQU2I7kSX01EIMOG-251" value="" style="shape=ext;double=1;rounded=0;whiteSpace=wrap;html=1;strokeColor=none;fillColor=#C4C4C4;" vertex="1" parent="1">
          <mxGeometry x="-939.5" y="910" width="301" height="70" as="geometry" />
        </mxCell>
        <mxCell id="sEEItQU2I7kSX01EIMOG-252" value="" style="ellipse;whiteSpace=wrap;html=1;aspect=fixed;strokeColor=none;fillColor=#C4C4C4;" vertex="1" parent="1">
          <mxGeometry x="-389" y="930" width="300" height="300" as="geometry" />
        </mxCell>
        <mxCell id="sEEItQU2I7kSX01EIMOG-253" value="" style="shape=actor;whiteSpace=wrap;html=1;strokeColor=none;" vertex="1" parent="1">
          <mxGeometry x="-339" y="970" width="200" height="260" as="geometry" />
        </mxCell>
        <mxCell id="sEEItQU2I7kSX01EIMOG-254" value="" style="ellipse;whiteSpace=wrap;html=1;aspect=fixed;strokeColor=none;fillColor=#FFCC99;" vertex="1" parent="1">
          <mxGeometry x="161" y="930" width="300" height="300" as="geometry" />
        </mxCell>
        <mxCell id="sEEItQU2I7kSX01EIMOG-255" value="" style="shape=actor;whiteSpace=wrap;html=1;strokeColor=none;" vertex="1" parent="1">
          <mxGeometry x="211" y="970" width="200" height="260" as="geometry" />
        </mxCell>
        <mxCell id="sEEItQU2I7kSX01EIMOG-256" value="" style="ellipse;whiteSpace=wrap;html=1;aspect=fixed;strokeColor=none;fillColor=#C4C4C4;" vertex="1" parent="1">
          <mxGeometry x="677" y="930" width="150" height="150" as="geometry" />
        </mxCell>
        <mxCell id="sEEItQU2I7kSX01EIMOG-257" value="" style="shape=actor;whiteSpace=wrap;html=1;strokeColor=none;" vertex="1" parent="1">
          <mxGeometry x="698" y="950" width="102.5" height="130" as="geometry" />
        </mxCell>
        <mxCell id="sEEItQU2I7kSX01EIMOG-258" value="" style="shape=ext;double=1;rounded=0;whiteSpace=wrap;html=1;strokeColor=none;fillColor=#C4C4C4;" vertex="1" parent="1">
          <mxGeometry x="865" y="940" width="180" height="120" as="geometry" />
        </mxCell>
        <mxCell id="sEEItQU2I7kSX01EIMOG-259" value="" style="shape=ext;double=1;rounded=0;whiteSpace=wrap;html=1;strokeColor=none;fillColor=#CCE5FF;" vertex="1" parent="1">
          <mxGeometry x="687.25" y="1165" width="357.75" height="60" as="geometry" />
        </mxCell>
        <mxCell id="sEEItQU2I7kSX01EIMOG-260" value="" style="shape=ext;double=1;rounded=0;whiteSpace=wrap;html=1;strokeColor=none;fillColor=#C4C4C4;" vertex="1" parent="1">
          <mxGeometry x="687.25" y="1082" width="127.5" height="60" as="geometry" />
        </mxCell>
        <mxCell id="sEEItQU2I7kSX01EIMOG-261" value="" style="shape=ext;double=1;rounded=0;whiteSpace=wrap;html=1;strokeColor=none;fillColor=#C4C4C4;" vertex="1" parent="1">
          <mxGeometry x="845" y="1082" width="199.75" height="60" as="geometry" />
        </mxCell>
        <mxCell id="sEEItQU2I7kSX01EIMOG-264" value="" style="ellipse;whiteSpace=wrap;html=1;aspect=fixed;strokeColor=none;fillColor=#C4C4C4;" vertex="1" parent="1">
          <mxGeometry x="1227" y="980" width="150" height="150" as="geometry" />
        </mxCell>
        <mxCell id="sEEItQU2I7kSX01EIMOG-265" value="" style="shape=actor;whiteSpace=wrap;html=1;strokeColor=none;" vertex="1" parent="1">
          <mxGeometry x="1248" y="1000" width="102.5" height="130" as="geometry" />
        </mxCell>
        <mxCell id="sEEItQU2I7kSX01EIMOG-266" value="" style="shape=ext;double=1;rounded=0;whiteSpace=wrap;html=1;strokeColor=none;fillColor=#C4C4C4;" vertex="1" parent="1">
          <mxGeometry x="1415" y="980" width="180" height="50" as="geometry" />
        </mxCell>
        <mxCell id="sEEItQU2I7kSX01EIMOG-267" value="" style="shape=ext;double=1;rounded=0;whiteSpace=wrap;html=1;strokeColor=none;fillColor=#C4C4C4;" vertex="1" parent="1">
          <mxGeometry x="1415" y="1060" width="180" height="50" as="geometry" />
        </mxCell>
        <mxCell id="sEEItQU2I7kSX01EIMOG-268" value="" style="ellipse;whiteSpace=wrap;html=1;aspect=fixed;strokeColor=none;fillColor=#C4C4C4;" vertex="1" parent="1">
          <mxGeometry x="1777" y="980" width="150" height="150" as="geometry" />
        </mxCell>
        <mxCell id="sEEItQU2I7kSX01EIMOG-269" value="" style="shape=actor;whiteSpace=wrap;html=1;strokeColor=none;" vertex="1" parent="1">
          <mxGeometry x="1798" y="1000" width="102.5" height="130" as="geometry" />
        </mxCell>
        <mxCell id="sEEItQU2I7kSX01EIMOG-270" value="" style="shape=ext;double=1;rounded=0;whiteSpace=wrap;html=1;strokeColor=none;fillColor=#C4C4C4;" vertex="1" parent="1">
          <mxGeometry x="1965" y="980" width="180" height="50" as="geometry" />
        </mxCell>
        <mxCell id="sEEItQU2I7kSX01EIMOG-271" value="" style="shape=ext;double=1;rounded=0;whiteSpace=wrap;html=1;strokeColor=none;fillColor=#FFCCCC;" vertex="1" parent="1">
          <mxGeometry x="1965" y="1060" width="180" height="50" as="geometry" />
        </mxCell>
        <mxCell id="sEEItQU2I7kSX01EIMOG-272" value="" style="ellipse;whiteSpace=wrap;html=1;aspect=fixed;strokeColor=none;fillColor=#CCE5FF;" vertex="1" parent="1">
          <mxGeometry x="2340" y="930" width="150" height="150" as="geometry" />
        </mxCell>
        <mxCell id="sEEItQU2I7kSX01EIMOG-273" value="" style="shape=actor;whiteSpace=wrap;html=1;strokeColor=none;" vertex="1" parent="1">
          <mxGeometry x="2361" y="950" width="102.5" height="130" as="geometry" />
        </mxCell>
        <mxCell id="sEEItQU2I7kSX01EIMOG-274" value="" style="shape=ext;double=1;rounded=0;whiteSpace=wrap;html=1;strokeColor=none;fillColor=#FFCC99;" vertex="1" parent="1">
          <mxGeometry x="2528" y="940" width="180" height="120" as="geometry" />
        </mxCell>
        <mxCell id="sEEItQU2I7kSX01EIMOG-275" value="" style="shape=ext;double=1;rounded=0;whiteSpace=wrap;html=1;strokeColor=none;fillColor=#C4C4C4;" vertex="1" parent="1">
          <mxGeometry x="2351" y="1080" width="357.75" height="60" as="geometry" />
        </mxCell>
        <mxCell id="sEEItQU2I7kSX01EIMOG-276" value="" style="shape=ext;double=1;rounded=0;whiteSpace=wrap;html=1;strokeColor=none;fillColor=#C4C4C4;" vertex="1" parent="1">
          <mxGeometry x="2350.5" y="1160" width="127.5" height="60" as="geometry" />
        </mxCell>
        <mxCell id="sEEItQU2I7kSX01EIMOG-277" value="" style="shape=ext;double=1;rounded=0;whiteSpace=wrap;html=1;strokeColor=none;fillColor=#C4C4C4;" vertex="1" parent="1">
          <mxGeometry x="2508.25" y="1160" width="199.75" height="60" as="geometry" />
        </mxCell>
        <mxCell id="sEEItQU2I7kSX01EIMOG-278" value="" style="shape=ext;double=1;rounded=0;whiteSpace=wrap;html=1;strokeColor=none;fillColor=#C4C4C4;" vertex="1" parent="1">
          <mxGeometry x="2891" y="940" width="357.75" height="80" as="geometry" />
        </mxCell>
        <mxCell id="sEEItQU2I7kSX01EIMOG-279" value="" style="shape=ext;double=1;rounded=0;whiteSpace=wrap;html=1;strokeColor=none;fillColor=#C4C4C4;" vertex="1" parent="1">
          <mxGeometry x="2891" y="1050" width="357.75" height="80" as="geometry" />
        </mxCell>
        <mxCell id="sEEItQU2I7kSX01EIMOG-280" value="" style="shape=ext;double=1;rounded=0;whiteSpace=wrap;html=1;strokeColor=none;fillColor=#C4C4C4;" vertex="1" parent="1">
          <mxGeometry x="2891" y="1160" width="357.75" height="80" as="geometry" />
        </mxCell>
        <mxCell id="sEEItQU2I7kSX01EIMOG-281" value="" style="shape=ext;double=1;rounded=0;whiteSpace=wrap;html=1;strokeColor=none;fillColor=#C4C4C4;" vertex="1" parent="1">
          <mxGeometry x="3432.13" y="930" width="357.75" height="80" as="geometry" />
        </mxCell>
        <mxCell id="sEEItQU2I7kSX01EIMOG-282" value="" style="shape=ext;double=1;rounded=0;whiteSpace=wrap;html=1;strokeColor=none;fillColor=#C4C4C4;" vertex="1" parent="1">
          <mxGeometry x="3432.13" y="1040" width="357.75" height="80" as="geometry" />
        </mxCell>
        <mxCell id="sEEItQU2I7kSX01EIMOG-283" value="" style="shape=ext;double=1;rounded=0;whiteSpace=wrap;html=1;strokeColor=none;fillColor=#C4C4C4;" vertex="1" parent="1">
          <mxGeometry x="3432.13" y="1150" width="357.75" height="80" as="geometry" />
        </mxCell>
        <mxCell id="sEEItQU2I7kSX01EIMOG-284" value="" style="shape=ext;double=1;rounded=0;whiteSpace=wrap;html=1;strokeColor=none;fillColor=#CCE5FF;" vertex="1" parent="1">
          <mxGeometry x="4001" y="930" width="357.75" height="80" as="geometry" />
        </mxCell>
        <mxCell id="sEEItQU2I7kSX01EIMOG-285" value="" style="shape=ext;double=1;rounded=0;whiteSpace=wrap;html=1;strokeColor=none;fillColor=#C4C4C4;" vertex="1" parent="1">
          <mxGeometry x="4001" y="1040" width="357.75" height="190" as="geometry" />
        </mxCell>
        <mxCell id="sEEItQU2I7kSX01EIMOG-287" value="" style="shape=ext;double=1;rounded=0;whiteSpace=wrap;html=1;strokeColor=none;fillColor=#C4C4C4;" vertex="1" parent="1">
          <mxGeometry x="4542.12" y="930" width="357.75" height="80" as="geometry" />
        </mxCell>
        <mxCell id="sEEItQU2I7kSX01EIMOG-288" value="" style="shape=ext;double=1;rounded=0;whiteSpace=wrap;html=1;strokeColor=none;fillColor=#C4C4C4;" vertex="1" parent="1">
          <mxGeometry x="4542.12" y="1040" width="357.75" height="80" as="geometry" />
        </mxCell>
        <mxCell id="sEEItQU2I7kSX01EIMOG-289" value="" style="shape=ext;double=1;rounded=0;whiteSpace=wrap;html=1;strokeColor=none;fillColor=#C4C4C4;" vertex="1" parent="1">
          <mxGeometry x="4542.12" y="1150" width="357.75" height="80" as="geometry" />
        </mxCell>
        <mxCell id="sEEItQU2I7kSX01EIMOG-290" value="" style="shape=ext;double=1;rounded=0;whiteSpace=wrap;html=1;strokeColor=none;fillColor=#C4C4C4;" vertex="1" parent="1">
          <mxGeometry x="5092.13" y="930" width="157.87" height="80" as="geometry" />
        </mxCell>
        <mxCell id="sEEItQU2I7kSX01EIMOG-291" value="" style="shape=ext;double=1;rounded=0;whiteSpace=wrap;html=1;strokeColor=none;fillColor=#C4C4C4;" vertex="1" parent="1">
          <mxGeometry x="5092.13" y="1040" width="357.75" height="190" as="geometry" />
        </mxCell>
        <mxCell id="sEEItQU2I7kSX01EIMOG-292" value="" style="shape=ext;double=1;rounded=0;whiteSpace=wrap;html=1;strokeColor=none;fillColor=#C4C4C4;" vertex="1" parent="1">
          <mxGeometry x="5652.12" y="930" width="357.75" height="80" as="geometry" />
        </mxCell>
        <mxCell id="sEEItQU2I7kSX01EIMOG-293" value="" style="shape=ext;double=1;rounded=0;whiteSpace=wrap;html=1;strokeColor=none;fillColor=#C4C4C4;" vertex="1" parent="1">
          <mxGeometry x="5652.12" y="1040" width="357.75" height="190" as="geometry" />
        </mxCell>
        <mxCell id="sEEItQU2I7kSX01EIMOG-295" value="" style="shape=ext;double=1;rounded=0;whiteSpace=wrap;html=1;strokeColor=none;fillColor=#C4C4C4;" vertex="1" parent="1">
          <mxGeometry x="5292.01" y="930" width="157.87" height="80" as="geometry" />
        </mxCell>
        <mxCell id="sEEItQU2I7kSX01EIMOG-296" value="" style="shape=ext;double=1;rounded=0;whiteSpace=wrap;html=1;strokeColor=none;fillColor=#C4C4C4;" vertex="1" parent="1">
          <mxGeometry x="-967.88" y="1580" width="357.75" height="80" as="geometry" />
        </mxCell>
        <mxCell id="sEEItQU2I7kSX01EIMOG-297" value="" style="shape=ext;double=1;rounded=0;whiteSpace=wrap;html=1;strokeColor=none;fillColor=#C4C4C4;" vertex="1" parent="1">
          <mxGeometry x="-967.88" y="1690" width="357.75" height="80" as="geometry" />
        </mxCell>
        <mxCell id="sEEItQU2I7kSX01EIMOG-298" value="" style="shape=ext;double=1;rounded=0;whiteSpace=wrap;html=1;strokeColor=none;fillColor=#C4C4C4;" vertex="1" parent="1">
          <mxGeometry x="-967.88" y="1800" width="357.75" height="80" as="geometry" />
        </mxCell>
        <mxCell id="sEEItQU2I7kSX01EIMOG-304" value="" style="ellipse;whiteSpace=wrap;html=1;aspect=fixed;strokeColor=none;fillColor=#C4C4C4;" vertex="1" parent="1">
          <mxGeometry x="676.75" y="1582.5" width="150" height="150" as="geometry" />
        </mxCell>
        <mxCell id="sEEItQU2I7kSX01EIMOG-305" value="" style="shape=actor;whiteSpace=wrap;html=1;strokeColor=none;" vertex="1" parent="1">
          <mxGeometry x="697.75" y="1602.5" width="102.5" height="130" as="geometry" />
        </mxCell>
        <mxCell id="sEEItQU2I7kSX01EIMOG-306" value="" style="shape=ext;double=1;rounded=0;whiteSpace=wrap;html=1;strokeColor=none;fillColor=#FFCCCC;" vertex="1" parent="1">
          <mxGeometry x="864.75" y="1592.5" width="180" height="120" as="geometry" />
        </mxCell>
        <mxCell id="sEEItQU2I7kSX01EIMOG-307" value="" style="shape=ext;double=1;rounded=0;whiteSpace=wrap;html=1;strokeColor=none;fillColor=#FFCC99;" vertex="1" parent="1">
          <mxGeometry x="687" y="1817.5" width="357.75" height="60" as="geometry" />
        </mxCell>
        <mxCell id="sEEItQU2I7kSX01EIMOG-308" value="" style="shape=ext;double=1;rounded=0;whiteSpace=wrap;html=1;strokeColor=none;fillColor=#C4C4C4;" vertex="1" parent="1">
          <mxGeometry x="687" y="1734.5" width="127.5" height="60" as="geometry" />
        </mxCell>
        <mxCell id="sEEItQU2I7kSX01EIMOG-309" value="" style="shape=ext;double=1;rounded=0;whiteSpace=wrap;html=1;strokeColor=none;fillColor=#C4C4C4;" vertex="1" parent="1">
          <mxGeometry x="844.75" y="1734.5" width="199.75" height="60" as="geometry" />
        </mxCell>
        <mxCell id="sEEItQU2I7kSX01EIMOG-310" value="" style="ellipse;whiteSpace=wrap;html=1;aspect=fixed;strokeColor=none;fillColor=#C4C4C4;" vertex="1" parent="1">
          <mxGeometry x="-423" y="1585" width="150" height="150" as="geometry" />
        </mxCell>
        <mxCell id="sEEItQU2I7kSX01EIMOG-311" value="" style="shape=actor;whiteSpace=wrap;html=1;strokeColor=none;" vertex="1" parent="1">
          <mxGeometry x="-402" y="1605" width="102.5" height="130" as="geometry" />
        </mxCell>
        <mxCell id="sEEItQU2I7kSX01EIMOG-312" value="" style="shape=ext;double=1;rounded=0;whiteSpace=wrap;html=1;strokeColor=none;fillColor=#CCE5FF;" vertex="1" parent="1">
          <mxGeometry x="-235" y="1595" width="180" height="120" as="geometry" />
        </mxCell>
        <mxCell id="sEEItQU2I7kSX01EIMOG-313" value="" style="shape=ext;double=1;rounded=0;whiteSpace=wrap;html=1;strokeColor=none;fillColor=#C4C4C4;" vertex="1" parent="1">
          <mxGeometry x="-412.75" y="1820" width="357.75" height="60" as="geometry" />
        </mxCell>
        <mxCell id="sEEItQU2I7kSX01EIMOG-316" value="" style="shape=ext;double=1;rounded=0;whiteSpace=wrap;html=1;strokeColor=none;fillColor=#C4C4C4;" vertex="1" parent="1">
          <mxGeometry x="-412.75" y="1740" width="357.75" height="60" as="geometry" />
        </mxCell>
        <mxCell id="sEEItQU2I7kSX01EIMOG-317" value="" style="shape=ext;double=1;rounded=0;whiteSpace=wrap;html=1;strokeColor=none;fillColor=#C4C4C4;" vertex="1" parent="1">
          <mxGeometry x="132.13" y="1585" width="357.75" height="80" as="geometry" />
        </mxCell>
        <mxCell id="sEEItQU2I7kSX01EIMOG-318" value="" style="shape=ext;double=1;rounded=0;whiteSpace=wrap;html=1;strokeColor=none;fillColor=#CCE5FF;" vertex="1" parent="1">
          <mxGeometry x="132.13" y="1695" width="357.75" height="190" as="geometry" />
        </mxCell>
        <mxCell id="sEEItQU2I7kSX01EIMOG-319" value="" style="shape=ext;double=1;rounded=0;whiteSpace=wrap;html=1;strokeColor=none;fillColor=#C4C4C4;" vertex="1" parent="1">
          <mxGeometry x="-967.88" y="2240" width="357.75" height="80" as="geometry" />
        </mxCell>
        <mxCell id="sEEItQU2I7kSX01EIMOG-320" value="" style="shape=ext;double=1;rounded=0;whiteSpace=wrap;html=1;strokeColor=none;fillColor=#C4C4C4;" vertex="1" parent="1">
          <mxGeometry x="-967.88" y="2350" width="357.75" height="80" as="geometry" />
        </mxCell>
        <mxCell id="sEEItQU2I7kSX01EIMOG-321" value="" style="shape=ext;double=1;rounded=0;whiteSpace=wrap;html=1;strokeColor=none;fillColor=#C4C4C4;" vertex="1" parent="1">
          <mxGeometry x="-967.88" y="2460" width="357.75" height="80" as="geometry" />
        </mxCell>
        <mxCell id="sEEItQU2I7kSX01EIMOG-322" value="" style="shape=ext;double=1;rounded=0;whiteSpace=wrap;html=1;strokeColor=none;fillColor=#C4C4C4;" vertex="1" parent="1">
          <mxGeometry x="-412.75" y="2240" width="357.75" height="80" as="geometry" />
        </mxCell>
        <mxCell id="sEEItQU2I7kSX01EIMOG-323" value="" style="shape=ext;double=1;rounded=0;whiteSpace=wrap;html=1;strokeColor=none;fillColor=#C4C4C4;" vertex="1" parent="1">
          <mxGeometry x="-412.75" y="2350" width="357.75" height="190" as="geometry" />
        </mxCell>
        <mxCell id="sEEItQU2I7kSX01EIMOG-324" value="" style="shape=ext;double=1;rounded=0;whiteSpace=wrap;html=1;strokeColor=none;fillColor=#C4C4C4;" vertex="1" parent="1">
          <mxGeometry x="132.13" y="2240" width="357.75" height="80" as="geometry" />
        </mxCell>
        <mxCell id="sEEItQU2I7kSX01EIMOG-325" value="" style="shape=ext;double=1;rounded=0;whiteSpace=wrap;html=1;strokeColor=none;fillColor=#C4C4C4;" vertex="1" parent="1">
          <mxGeometry x="132.13" y="2350" width="357.75" height="190" as="geometry" />
        </mxCell>
        <mxCell id="sEEItQU2I7kSX01EIMOG-326" value="" style="shape=ext;double=1;rounded=0;whiteSpace=wrap;html=1;strokeColor=none;fillColor=#CCE5FF;" vertex="1" parent="1">
          <mxGeometry x="682.12" y="2240" width="357.75" height="80" as="geometry" />
        </mxCell>
        <mxCell id="sEEItQU2I7kSX01EIMOG-327" value="" style="shape=ext;double=1;rounded=0;whiteSpace=wrap;html=1;strokeColor=none;fillColor=#CCE5FF;" vertex="1" parent="1">
          <mxGeometry x="682.12" y="2350" width="357.75" height="190" as="geometry" />
        </mxCell>
        <mxCell id="sEEItQU2I7kSX01EIMOG-328" value="" style="shape=ext;double=1;rounded=0;whiteSpace=wrap;html=1;strokeColor=none;fillColor=#C4C4C4;" vertex="1" parent="1">
          <mxGeometry x="-967.88" y="2920" width="357.75" height="80" as="geometry" />
        </mxCell>
        <mxCell id="sEEItQU2I7kSX01EIMOG-329" value="" style="shape=ext;double=1;rounded=0;whiteSpace=wrap;html=1;strokeColor=none;fillColor=#C4C4C4;" vertex="1" parent="1">
          <mxGeometry x="-967.88" y="3030" width="357.75" height="80" as="geometry" />
        </mxCell>
        <mxCell id="sEEItQU2I7kSX01EIMOG-330" value="" style="shape=ext;double=1;rounded=0;whiteSpace=wrap;html=1;strokeColor=none;fillColor=#C4C4C4;" vertex="1" parent="1">
          <mxGeometry x="-967.88" y="3140" width="357.75" height="80" as="geometry" />
        </mxCell>
        <mxCell id="sEEItQU2I7kSX01EIMOG-331" value="" style="shape=ext;double=1;rounded=0;whiteSpace=wrap;html=1;strokeColor=none;fillColor=#C4C4C4;" vertex="1" parent="1">
          <mxGeometry x="-417.88" y="2920" width="357.75" height="180" as="geometry" />
        </mxCell>
        <mxCell id="sEEItQU2I7kSX01EIMOG-333" value="" style="shape=ext;double=1;rounded=0;whiteSpace=wrap;html=1;strokeColor=none;fillColor=#C4C4C4;" vertex="1" parent="1">
          <mxGeometry x="-417.88" y="3140" width="357.75" height="80" as="geometry" />
        </mxCell>
        <mxCell id="sEEItQU2I7kSX01EIMOG-334" value="" style="shape=ext;double=1;rounded=0;whiteSpace=wrap;html=1;strokeColor=none;fillColor=#C4C4C4;" vertex="1" parent="1">
          <mxGeometry x="-971.88" y="3560" width="167.88" height="80" as="geometry" />
        </mxCell>
        <mxCell id="sEEItQU2I7kSX01EIMOG-335" value="" style="shape=ext;double=1;rounded=0;whiteSpace=wrap;html=1;strokeColor=none;fillColor=#C4C4C4;" vertex="1" parent="1">
          <mxGeometry x="-971.88" y="3670" width="167.88" height="80" as="geometry" />
        </mxCell>
        <mxCell id="sEEItQU2I7kSX01EIMOG-336" value="" style="shape=ext;double=1;rounded=0;whiteSpace=wrap;html=1;strokeColor=none;fillColor=#C4C4C4;" vertex="1" parent="1">
          <mxGeometry x="-971.88" y="3780" width="167.88" height="80" as="geometry" />
        </mxCell>
        <mxCell id="sEEItQU2I7kSX01EIMOG-337" value="" style="shape=ext;double=1;rounded=0;whiteSpace=wrap;html=1;strokeColor=none;fillColor=#C4C4C4;" vertex="1" parent="1">
          <mxGeometry x="-774" y="3560" width="167.88" height="80" as="geometry" />
        </mxCell>
        <mxCell id="sEEItQU2I7kSX01EIMOG-338" value="" style="shape=ext;double=1;rounded=0;whiteSpace=wrap;html=1;strokeColor=none;fillColor=#C4C4C4;" vertex="1" parent="1">
          <mxGeometry x="-774" y="3670" width="167.88" height="80" as="geometry" />
        </mxCell>
        <mxCell id="sEEItQU2I7kSX01EIMOG-339" value="" style="shape=ext;double=1;rounded=0;whiteSpace=wrap;html=1;strokeColor=none;fillColor=#C4C4C4;" vertex="1" parent="1">
          <mxGeometry x="-774" y="3780" width="167.88" height="80" as="geometry" />
        </mxCell>
        <mxCell id="sEEItQU2I7kSX01EIMOG-340" value="" style="shape=ext;double=1;rounded=0;whiteSpace=wrap;html=1;strokeColor=none;fillColor=#C4C4C4;" vertex="1" parent="1">
          <mxGeometry x="-417.88" y="3560" width="357.75" height="80" as="geometry" />
        </mxCell>
        <mxCell id="sEEItQU2I7kSX01EIMOG-341" value="" style="shape=ext;double=1;rounded=0;whiteSpace=wrap;html=1;strokeColor=none;fillColor=#C4C4C4;" vertex="1" parent="1">
          <mxGeometry x="-417.88" y="3670" width="357.75" height="190" as="geometry" />
        </mxCell>
        <mxCell id="sEEItQU2I7kSX01EIMOG-344" value="" style="shape=ext;double=1;rounded=0;whiteSpace=wrap;html=1;strokeColor=none;fillColor=#C4C4C4;" vertex="1" parent="1">
          <mxGeometry x="141.0000000000001" y="3570" width="357.75" height="80" as="geometry" />
        </mxCell>
        <mxCell id="sEEItQU2I7kSX01EIMOG-345" value="" style="shape=ext;double=1;rounded=0;whiteSpace=wrap;html=1;strokeColor=none;fillColor=#C4C4C4;" vertex="1" parent="1">
          <mxGeometry x="141.0000000000001" y="3680" width="357.75" height="80" as="geometry" />
        </mxCell>
        <mxCell id="sEEItQU2I7kSX01EIMOG-346" value="" style="shape=ext;double=1;rounded=0;whiteSpace=wrap;html=1;strokeColor=none;fillColor=#C4C4C4;" vertex="1" parent="1">
          <mxGeometry x="141.0000000000001" y="3790" width="357.75" height="80" as="geometry" />
        </mxCell>
        <mxCell id="sEEItQU2I7kSX01EIMOG-347" value="" style="shape=ext;double=1;rounded=0;whiteSpace=wrap;html=1;strokeColor=none;fillColor=#C4C4C4;" vertex="1" parent="1">
          <mxGeometry x="691.0000000000001" y="3570" width="357.75" height="80" as="geometry" />
        </mxCell>
        <mxCell id="sEEItQU2I7kSX01EIMOG-348" value="" style="shape=ext;double=1;rounded=0;whiteSpace=wrap;html=1;strokeColor=none;fillColor=#C4C4C4;" vertex="1" parent="1">
          <mxGeometry x="691.0000000000001" y="3680" width="357.75" height="80" as="geometry" />
        </mxCell>
        <mxCell id="sEEItQU2I7kSX01EIMOG-349" value="" style="shape=ext;double=1;rounded=0;whiteSpace=wrap;html=1;strokeColor=none;fillColor=#C4C4C4;" vertex="1" parent="1">
          <mxGeometry x="691.0000000000001" y="3790" width="357.75" height="80" as="geometry" />
        </mxCell>
        <mxCell id="sEEItQU2I7kSX01EIMOG-350" value="" style="shape=ext;double=1;rounded=0;whiteSpace=wrap;html=1;strokeColor=none;fillColor=#C4C4C4;" vertex="1" parent="1">
          <mxGeometry x="1237.25" y="3570" width="357.75" height="80" as="geometry" />
        </mxCell>
        <mxCell id="sEEItQU2I7kSX01EIMOG-351" value="" style="shape=ext;double=1;rounded=0;whiteSpace=wrap;html=1;strokeColor=none;fillColor=#C4C4C4;" vertex="1" parent="1">
          <mxGeometry x="1237.25" y="3680" width="357.75" height="80" as="geometry" />
        </mxCell>
        <mxCell id="sEEItQU2I7kSX01EIMOG-352" value="" style="shape=ext;double=1;rounded=0;whiteSpace=wrap;html=1;strokeColor=none;fillColor=#C4C4C4;" vertex="1" parent="1">
          <mxGeometry x="1237.25" y="3790" width="357.75" height="80" as="geometry" />
        </mxCell>
        <mxCell id="sEEItQU2I7kSX01EIMOG-353" value="" style="shape=ext;double=1;rounded=0;whiteSpace=wrap;html=1;strokeColor=none;fillColor=#C4C4C4;" vertex="1" parent="1">
          <mxGeometry x="1791" y="3577" width="357.75" height="80" as="geometry" />
        </mxCell>
        <mxCell id="sEEItQU2I7kSX01EIMOG-354" value="" style="shape=ext;double=1;rounded=0;whiteSpace=wrap;html=1;strokeColor=none;fillColor=#C4C4C4;" vertex="1" parent="1">
          <mxGeometry x="1791" y="3687" width="357.75" height="190" as="geometry" />
        </mxCell>
        <mxCell id="sEEItQU2I7kSX01EIMOG-355" value="" style="shape=ext;double=1;rounded=0;whiteSpace=wrap;html=1;strokeColor=none;fillColor=#C4C4C4;" vertex="1" parent="1">
          <mxGeometry x="2332.13" y="3577" width="357.75" height="80" as="geometry" />
        </mxCell>
        <mxCell id="sEEItQU2I7kSX01EIMOG-356" value="" style="shape=ext;double=1;rounded=0;whiteSpace=wrap;html=1;strokeColor=none;fillColor=#C4C4C4;" vertex="1" parent="1">
          <mxGeometry x="2332.13" y="3687" width="357.75" height="80" as="geometry" />
        </mxCell>
        <mxCell id="sEEItQU2I7kSX01EIMOG-357" value="" style="shape=ext;double=1;rounded=0;whiteSpace=wrap;html=1;strokeColor=none;fillColor=#C4C4C4;" vertex="1" parent="1">
          <mxGeometry x="2332.13" y="3797" width="357.75" height="80" as="geometry" />
        </mxCell>
        <mxCell id="sEEItQU2I7kSX01EIMOG-361" value="" style="shape=ext;double=1;rounded=0;whiteSpace=wrap;html=1;strokeColor=none;fillColor=#C4C4C4;" vertex="1" parent="1">
          <mxGeometry x="2882.12" y="3687" width="357.75" height="80" as="geometry" />
        </mxCell>
        <mxCell id="sEEItQU2I7kSX01EIMOG-362" value="" style="shape=ext;double=1;rounded=0;whiteSpace=wrap;html=1;strokeColor=none;fillColor=#C4C4C4;" vertex="1" parent="1">
          <mxGeometry x="2882.12" y="3797" width="357.75" height="80" as="geometry" />
        </mxCell>
        <mxCell id="sEEItQU2I7kSX01EIMOG-363" value="" style="shape=ext;double=1;rounded=0;whiteSpace=wrap;html=1;strokeColor=none;fillColor=#C4C4C4;" vertex="1" parent="1">
          <mxGeometry x="2882.12" y="3577" width="157.88" height="80" as="geometry" />
        </mxCell>
        <mxCell id="sEEItQU2I7kSX01EIMOG-364" value="" style="shape=ext;double=1;rounded=0;whiteSpace=wrap;html=1;strokeColor=none;fillColor=#C4C4C4;" vertex="1" parent="1">
          <mxGeometry x="3080" y="3577" width="159.87" height="80" as="geometry" />
        </mxCell>
      </root>
    </mxGraphModel>
  </diagram>
</mxfile>
